<?xml version="1.0" encoding="UTF-8" standalone="no"?>
<!-- Created with Inkscape (http://www.inkscape.org/) -->

<svg
   xmlns:dc="http://purl.org/dc/elements/1.1/"
   xmlns:cc="http://creativecommons.org/ns#"
   xmlns:rdf="http://www.w3.org/1999/02/22-rdf-syntax-ns#"
   xmlns:svg="http://www.w3.org/2000/svg"
   xmlns="http://www.w3.org/2000/svg"
   xmlns:sodipodi="http://sodipodi.sourceforge.net/DTD/sodipodi-0.dtd"
   xmlns:inkscape="http://www.inkscape.org/namespaces/inkscape"
   width="44.634205"
   height="48.718098"
   id="svg3822"
   version="1.1"
   inkscape:version="0.48.3.1 r9886"
   sodipodi:docname="lizzard.svg">
  <defs
     id="defs3824" />
  <sodipodi:namedview
     id="base"
     pagecolor="#000000"
     bordercolor="#666666"
     borderopacity="1.0"
     inkscape:pageopacity="1"
     inkscape:pageshadow="2"
     inkscape:zoom="7.9195959"
     inkscape:cx="16.837584"
     inkscape:cy="42.658747"
     inkscape:document-units="px"
     inkscape:current-layer="layer1"
     showgrid="false"
     fit-margin-top="0"
     fit-margin-left="0"
     fit-margin-right="0"
     fit-margin-bottom="0"
     inkscape:window-width="1600"
     inkscape:window-height="850"
     inkscape:window-x="0"
     inkscape:window-y="0"
     inkscape:window-maximized="1" />
  <metadata
     id="metadata3827">
    <rdf:RDF>
      <cc:Work
         rdf:about="">
        <dc:format>image/svg+xml</dc:format>
        <dc:type
           rdf:resource="http://purl.org/dc/dcmitype/StillImage" />
        <dc:title></dc:title>
      </cc:Work>
    </rdf:RDF>
  </metadata>
  <g
     inkscape:label="Layer 1"
     inkscape:groupmode="layer"
     id="layer1"
     transform="translate(-191.32657,-1046.6179)">
    <g
       transform="translate(19.513628,1024.4731)"
       id="g4431">
      <path
         inkscape:export-ydpi="90"
         inkscape:export-xdpi="90"
         inkscape:export-filename="/mnt/work/projects/volat3/soft/matrixgui/images/icons/fuel.png"
         sodipodi:nodetypes="sscccccccccccccccccccccssccccccsccssccccc"
         inkscape:connector-curvature="0"
         id="path3281-5"
         d="m 179.60783,22.144808 c -2.4207,0 -3.89744,1.461633 -3.89744,3.897482 l 0,40.923132 -3.89745,0 0,3.897482 30.20524,0 0,-3.897482 -3.89749,0 0,-22.410307 c 2.36154,0 3.9225,0.521647 3.92786,2.923143 0.0274,1.152703 -0.0249,0.849373 -0.0299,2.923018 0,2.07377 -0.0859,5.031142 0.18272,7.82546 0.54717,2.671592 2.9056,4.884891 5.57221,5.450227 3.44479,0.842777 7.38036,-1.294472 8.343,-4.749967 0.69205,-1.813133 0.16355,-3.734678 -0.36544,-5.511217 -0.83643,-3.369611 -1.77592,-6.702131 -2.5577,-10.078589 l 0,-4.597742 c 0.76448,-0.01992 1.76608,0 1.76608,0 0,0 -0.45829,-4.406559 -1.12669,-6.120242 -0.45269,-2.022488 -1.36368,-3.893748 -2.49684,-5.602576 -0.74282,-1.120217 -1.68879,-2.116338 -2.74042,-2.953389 -0.99786,-0.794607 -2.07813,-1.289494 -3.31883,-1.918433 -0.54442,0.786516 -1.30928,1.705218 -1.91831,2.405603 1.39654,1.197636 2.62168,2.297315 3.59291,3.714638 0.91609,1.336792 1.57565,2.862402 2.04016,4.415147 0.42731,1.428774 0.55252,2.666613 0.6394,4.415023 0.0448,2.344613 -0.0934,4.703043 0.061,7.033715 1.03869,4.125136 2.18641,8.258362 3.16673,12.392584 0.35212,2.271923 -1.95329,4.304743 -4.17157,3.806122 -1.94917,-0.287398 -2.88542,-2.498332 -2.92301,-4.201932 -0.0747,-3.417159 -0.0697,-7.214818 -0.0921,-10.900704 -0.51007,-2.61695 -2.67956,-4.567247 -5.60258,-4.567247 l -1.9488,0 c -0.0324,-5.046079 0,-14.620321 0,-14.645837 0,-2.332291 -1.40488,-3.867112 -3.89736,-3.867112 z m -0.0161,3.875949 14.61537,0 0,14.615466 -14.61537,0 z"
         style="fill:#ffffff;fill-opacity:1;stroke:none" />
      <g
         transform="matrix(0.09465488,0,0,0.09465488,166.98133,13.660142)"
         id="g4427">
        <path
           inkscape:connector-curvature="0"
           id="path2820"
           d="m 167.57065,283.60378 c -0.1534,-0.0134 -0.41104,-0.0525 -0.57253,-0.0869 -0.7687,-0.1636 -1.04611,-0.31771 -1.85033,-1.028 l -0.35294,-0.31172 -0.26363,-0.0162 c -0.30437,-0.0187 -0.73933,-0.15662 -1.09524,-0.34721 -0.58829,-0.31501 -1.07416,-0.85495 -1.67573,-1.86219 -0.29585,-0.49537 -0.37032,-0.66949 -0.58936,-1.37803 -0.32676,-1.057 -0.5664,-1.54787 -0.95151,-1.94907 -0.25023,-0.26069 -0.48129,-0.42789 -1.32506,-0.95883 -0.84035,-0.52879 -1.16447,-0.75033 -1.5676,-1.07148 -0.59449,-0.47362 -1.23311,-1.15097 -1.37277,-1.45601 -0.13898,-0.30358 -0.19081,-0.58257 -0.20763,-1.11765 -0.0296,-0.93989 0.13268,-1.90633 0.5218,-3.10853 0.31159,-0.96268 0.54806,-1.51899 1.30418,-3.06819 0.54676,-1.12027 0.6883,-1.43915 0.84706,-1.90844 0.041,-0.12111 0.11587,-0.33229 0.16643,-0.46929 0.24806,-0.67203 0.0287,-1.11064 -0.91054,-1.82031 -0.86255,-0.65176 -2.38867,-2.33404 -2.99726,-3.30394 -0.21525,-0.34304 -1.04834,-1.97651 -1.40742,-2.75956 -0.11848,-0.25837 -0.22558,-0.48373 -0.238,-0.50081 -0.0153,-0.021 -0.39291,-0.0294 -1.17363,-0.0259 -1.07673,0.005 -1.15358,0.009 -1.19021,0.0587 -0.0215,0.0294 -0.0392,0.076 -0.0392,0.10344 0,0.0274 -0.0335,0.17863 -0.0743,0.33596 -0.13821,0.53196 -0.1829,0.60008 -1.16473,1.77561 -0.4923,0.58942 -1.05072,1.24342 -1.24093,1.45335 -0.66228,0.73091 -1.31072,1.46185 -1.54621,1.74293 -1.50034,1.79084 -3.05328,4.73217 -3.55974,6.7423 -0.0407,0.16148 -0.1883,0.8353 -0.32803,1.49738 l -0.25405,1.20379 0.0249,0.2936 c 0.0389,0.45815 0.0304,1.32238 -0.0152,1.54876 -0.0236,0.1173 -0.0757,0.2522 -0.12763,0.3306 -0.11867,0.17916 -0.38785,0.41414 -0.54175,0.47291 -0.12333,0.0471 -0.12931,0.0465 -0.28078,-0.028 -0.0851,-0.0419 -0.24279,-0.15588 -0.35037,-0.25332 -0.10757,-0.0974 -0.2041,-0.17716 -0.21451,-0.17716 -0.0104,0 -0.0999,0.0655 -0.19888,0.14561 -0.53548,0.43328 -0.85714,0.44373 -1.24168,0.0403 -0.084,-0.0882 -0.19748,-0.23833 -0.25209,-0.33372 -0.0628,-0.10974 -0.1188,-0.17375 -0.15243,-0.1743 -0.0292,-8.9e-4 -0.12171,0.0626 -0.20552,0.14024 -0.30029,0.27806 -0.56481,0.4461 -0.70225,0.4461 -0.10541,0 -0.26685,-0.12672 -0.41858,-0.32858 -0.26349,-0.35052 -0.33254,-0.56168 -0.38222,-1.16881 -0.0112,-0.13726 -0.0538,-0.37509 -0.0946,-0.52849 -0.0695,-0.26116 -0.0755,-0.34077 -0.0948,-1.24972 -0.0113,-0.53395 -0.0299,-0.98596 -0.0414,-1.00448 -0.0326,-0.0527 -0.0244,-1.97973 0.0108,-2.54101 0.0453,-0.72279 0.13709,-1.69721 0.2213,-2.349 0.20761,-1.60699 0.31364,-2.07963 0.89359,-3.98347 l 0.20124,-0.66061 0.015,-0.63126 c 0.02,-0.84323 0.11737,-1.39181 0.39133,-2.20435 l 0.10471,-0.31059 -0.10594,-0.71703 c -0.29654,-2.00709 -0.31993,-2.36782 -0.42412,-6.54192 l -0.0201,-0.80422 -0.13287,-0.0337 c -0.33454,-0.0848 -0.87584,-0.47922 -1.47092,-1.07178 -0.43543,-0.43358 -0.69396,-0.76435 -1.02273,-1.3085 -0.40231,-0.66586 -0.94448,-1.88233 -1.04032,-2.33417 -0.18791,-0.88597 -0.2116,-3.37677 -0.0459,-4.82982 0.0984,-0.86297 0.50277,-2.31954 1.01891,-3.67008 0.38392,-1.00459 0.7079,-1.66183 1.42558,-2.89202 0.65437,-1.12167 0.83904,-1.36142 2.09464,-2.71929 0.37925,-0.41015 0.37351,-0.42865 -0.0939,-0.30277 -0.34913,0.094 -1.32711,0.29152 -1.44356,0.29152 -0.0667,0 -0.0708,-0.008 -0.0552,-0.1101 0.13872,-0.90761 0.23754,-1.51468 0.28494,-1.75044 0.0918,-0.45647 0.28374,-0.99051 0.54495,-1.51594 0.14325,-0.28814 0.23016,-0.49533 0.21449,-0.5113 -0.0159,-0.0162 -0.17539,0.004 -0.40174,0.0512 -0.56874,0.1183 -0.92123,0.16587 -1.37365,0.18536 -0.36258,0.0156 -0.46644,0.008 -0.88081,-0.0615 -0.25838,-0.0436 -0.48171,-0.0908 -0.49629,-0.105 -0.0156,-0.0151 0.0821,-0.14475 0.23609,-0.31343 0.29552,-0.32368 0.81023,-0.91017 1.01258,-1.15378 0.26199,-0.31542 1.41421,-1.95299 1.92126,-2.73055 0.70211,-1.07667 0.97721,-1.58547 1.2462,-2.3048 0.45427,-1.21484 0.66987,-2.0265 0.85006,-3.20031 0.15535,-1.01197 0.34456,-1.84875 0.64475,-2.85145 0.54172,-1.80947 1.18476,-3.25253 2.1328,-4.78627 0.10399,-0.16824 0.18905,-0.32206 0.18903,-0.34181 -2e-5,-0.0198 -0.0906,-0.14501 -0.20119,-0.27831 -0.5408,-0.65166 -1.03061,-1.44499 -1.27877,-2.07117 -0.35624,-0.89888 -0.50331,-2.38823 -0.33828,-3.42557 0.13153,-0.82676 0.47036,-1.80268 0.83189,-2.39607 0.85509,-1.40349 2.79966,-2.60904 4.68583,-2.90502 0.41142,-0.0646 1.60147,-0.0909 2.10285,-0.0466 1.33604,0.11813 2.30413,0.41109 3.042,0.92055 0.52762,0.36429 0.89379,0.74022 1.41008,1.44767 0.53653,0.73516 0.7483,1.11005 0.99175,1.75569 0.0618,0.16393 0.13061,0.30962 0.15289,0.32375 0.0249,0.0158 0.37855,-0.0264 0.92041,-0.10998 1.88896,-0.29129 2.56385,-0.35532 4.19594,-0.39809 2.53872,-0.0665 4.02781,0.17041 6.4831,1.03149 0.5894,0.20671 0.67566,0.2299 0.71934,0.19341 0.0273,-0.0228 0.15533,-0.13472 0.28452,-0.24871 1.30622,-1.15263 2.69351,-1.85834 4.08112,-2.07606 1.39916,-0.21953 2.11214,-0.19631 3.00841,0.098 1.1821,0.38817 2.44453,1.36954 3.03043,2.35575 0.75443,1.2699 0.76612,2.93048 0.0311,4.42409 -0.22877,0.4649 -0.44457,0.78089 -1.42229,2.08265 -0.46942,0.62498 -0.85961,1.15863 -0.8671,1.18588 -0.007,0.0273 0.0417,0.18443 0.1093,0.34929 0.32738,0.79837 0.68988,2.07183 0.83507,2.9336 0.17626,1.04621 0.3087,2.56515 0.44286,5.07939 0.10533,1.97392 0.3951,3.83231 0.78058,5.00598 0.25362,0.77224 0.81223,1.8094 1.31253,2.43694 0.0901,0.11304 0.31327,0.35916 0.4959,0.54696 0.18262,0.18779 0.33205,0.36167 0.33205,0.38642 0,0.077 -0.38157,0.39928 -0.59997,0.50683 -0.29541,0.14549 -0.50022,0.17464 -0.93668,0.1333 -0.41311,-0.0391 -0.8786,-0.1379 -1.34302,-0.28496 -0.17965,-0.0569 -0.34229,-0.0974 -0.36142,-0.0901 -0.0206,0.008 -0.0494,0.14376 -0.0704,0.33231 -0.0615,0.55093 -0.22255,1.04178 -0.47804,1.45711 -0.0473,0.077 -0.0861,0.15746 -0.0861,0.17892 0,0.0215 0.3138,0.32773 0.69732,0.68061 0.38352,0.35288 1.10739,1.05189 1.60859,1.55336 0.73757,0.73797 0.98262,1.00411 1.28558,1.39621 1.91076,2.47303 2.58831,4.14307 2.2228,5.47884 -0.47257,1.72699 -2.9399,4.73734 -4.54183,5.54141 -0.56208,0.28213 -1.58742,0.68241 -2.23843,0.87385 -0.48864,0.14369 -1.15691,0.2612 -1.48539,0.2612 -0.78421,0 -1.4441,-0.33429 -1.82008,-0.92205 -0.30881,-0.48274 -0.48148,-1.34793 -0.44798,-2.24463 0.0166,-0.44532 0.0447,-0.55195 0.2565,-0.97317 0.27745,-0.55187 0.58067,-0.91862 1.17453,-1.42064 0.52298,-0.44208 1.74809,-1.52846 1.77772,-1.57639 0.0374,-0.0605 -0.0355,-0.0875 -0.40008,-0.14835 -0.50309,-0.0839 -0.82371,-0.16964 -1.30424,-0.34868 -0.82443,-0.30722 -1.40502,-0.64006 -1.94935,-1.11757 -0.22036,-0.19331 -0.28527,-0.23597 -0.32296,-0.21223 -0.0416,0.0262 -0.0493,0.17084 -0.0649,1.21566 -0.0185,1.23619 -0.0301,1.37824 -0.19012,2.3282 -0.21564,1.28027 -0.44959,2.21424 -0.8682,3.46596 -0.60184,1.79962 -0.80488,2.27819 -1.83174,4.31742 -1.16524,2.31406 -1.38239,2.70305 -2.23368,4.00149 -0.61296,0.93492 -0.73207,1.26246 -0.72832,2.00276 0.002,0.35892 0.009,0.40035 0.34302,1.87908 0.41879,1.85618 0.59869,2.7157 0.75586,3.61136 0.0666,0.37949 0.21987,1.19204 0.34061,1.80568 0.38895,1.97667 0.40682,2.10245 0.40472,2.84798 -0.002,0.67089 -0.0496,1.18974 -0.16193,1.76164 -0.15051,0.7662 -0.33679,1.29763 -0.83875,2.39289 -0.21833,0.47637 -0.48096,1.05367 -0.58364,1.28287 -0.28008,0.62524 -0.52036,1.09191 -0.75822,1.47262 -0.24295,0.38886 -0.53128,0.88568 -0.64525,1.1118 -0.13092,0.25978 -0.0931,0.532 0.1033,0.74323 0.11258,0.12109 0.27988,0.22417 1.40499,0.86565 1.4408,0.82147 1.96395,1.13692 2.70567,1.63149 2.12831,1.41912 2.7571,1.98328 3.56427,3.19792 0.4216,0.63442 0.60557,1.07028 0.64945,1.53867 0.0171,0.1829 0.0326,0.22078 0.15814,0.3866 0.32646,0.43132 0.39608,1.00037 0.21851,1.7862 -0.17182,0.7604 -0.40668,1.05892 -0.95252,1.21068 -0.16643,0.0463 -0.18954,0.0634 -0.30783,0.22841 -0.20926,0.29187 -0.5058,0.56534 -0.7361,0.67883 -0.16776,0.0827 -0.28106,0.1122 -0.61658,0.1607 -0.22607,0.0327 -0.43086,0.0656 -0.45509,0.0732 -0.0242,0.008 -0.0869,0.10325 -0.13933,0.21261 -0.28242,0.58926 -0.72248,0.78507 -1.59294,0.70879 z m 0.50682,-0.66846 c 0.23608,-0.0207 0.28893,0.37192 0.3779,0.0917 -0.13615,-2.80754 1.18046,-1.93452 0.18861,-0.74749 -0.12688,0.14834 -3.24601,-0.50871 -3.24601,-0.41389 0,0.0548 0.0656,-0.0862 0.25933,0.0909 0.33676,0.30779 0.58022,0.72454 0.76521,0.80937 0.38402,0.17612 0.96892,0.22955 1.65496,0.16933 z m 1.98185,-0.9281 c 0.13173,-0.0416 0.27781,-0.10789 0.32461,-0.14727 0.16701,-0.14053 0.46582,-0.88503 0.53619,-1.3359 0.0494,-0.31643 0.0173,-0.72978 -0.0717,-0.92414 0,0 -1.28944,0.36958 -1.27013,1.64347 0.002,0.19378 -0.0151,0.45597 -0.0378,0.58262 -0.0355,0.19798 -0.0355,0.23421 0,0.25817 0.0574,0.0387 0.23686,0.0121 0.51878,-0.077 z m -5.61232,-0.48247 c 0.0375,-0.0929 3.92994,1.67126 4.02837,1.47747 0.11238,-1.40697 0.7646,-1.07322 1.89754,-0.88639 0.0807,0.0252 0.73718,-0.48612 0.74929,-0.48595 -0.0549,-0.15994 -1.02,-2.27953 -0.0321,-3.09445 0.0156,0.0156 0.13126,-0.0237 0.28299,-0.0961 l 0.25661,-0.12249 -0.0184,-0.13449 c -0.0101,-0.074 -0.0633,-0.23823 -0.11809,-0.365 -0.46814,-1.08281 -1.52487,-2.11154 -3.41002,-3.3197 -0.9899,-0.6344 -1.74289,-1.10063 -2.46498,-1.52623 -0.37141,-0.21892 -0.88669,-0.52874 -1.14506,-0.6885 -0.25838,-0.15976 -0.61989,-0.37583 -0.80336,-0.48015 -0.63668,-0.36203 -0.88321,-0.6767 -0.90856,-1.15964 -0.023,-0.43851 0.0343,-0.59097 0.66799,-1.77526 0.79844,-1.49233 1.60235,-3.14074 1.77972,-3.64929 0.42168,-1.20907 0.64646,-2.70937 0.53098,-3.54407 -0.33646,-2.4319 -0.85062,-5.13475 -1.21032,-6.36242 -0.58507,-1.99688 -0.72484,-3.28821 -0.4697,-4.33953 0.10414,-0.42916 0.23237,-0.70545 0.57921,-1.24804 0.83474,-1.30586 1.82513,-3.04435 2.48372,-4.35984 0.73017,-1.45847 1.63055,-3.78404 1.97225,-5.09407 0.33572,-1.28707 0.54018,-2.71283 0.79369,-5.53448 0.0319,-0.35526 0.13109,-1.18763 0.22038,-1.84972 0.19702,-1.46079 0.19127,-1.42399 0.22265,-1.42399 0.0363,0 0.13979,0.24404 0.20548,0.48445 0.0899,0.32902 0.14548,0.75697 0.16565,1.27562 0.0179,0.46024 0.0221,0.48594 0.0893,0.54822 0.20402,0.18908 1.21776,0.83638 1.69639,1.08319 0.61771,0.31853 0.89594,0.42487 1.42203,0.5435 0.41885,0.0944 1.47167,0.29295 1.55368,0.29295 0.028,0 0.30578,-0.15299 0.61728,-0.33998 0.31151,-0.187 0.66059,-0.38008 0.77575,-0.42908 0.21802,-0.0928 0.54916,-0.14593 0.54916,-0.0882 0,0.0633 -0.34392,0.40098 -0.73282,0.71949 -0.56548,0.46311 -1.07742,0.92396 -1.70338,1.53338 -0.29915,0.29125 -0.84118,0.79481 -1.20452,1.11903 -1.08076,0.96442 -1.25755,1.18159 -1.44316,1.7727 -0.178,0.56689 -0.008,1.73714 0.32836,2.26143 0.21808,0.33986 0.52723,0.52441 0.91939,0.54888 0.21225,0.0132 0.29615,8.8e-4 0.73859,-0.10894 0.27452,-0.0681 0.76998,-0.21335 1.10102,-0.32269 1.62995,-0.5384 2.11946,-0.82535 3.11758,-1.82751 0.73568,-0.73865 1.44567,-1.62161 1.87215,-2.32822 0.22711,-0.37629 0.56186,-1.09904 0.66634,-1.43867 0.0736,-0.23936 0.0814,-0.30711 0.0824,-0.71934 9.6e-4,-0.40487 -0.008,-0.48587 -0.0769,-0.73402 -0.46027,-1.64722 -2.26289,-4.03125 -4.48718,-5.93442 -0.218,-0.18653 -0.4909,-0.4404 -0.60645,-0.56416 -0.11555,-0.12375 -0.22844,-0.225 -0.25087,-0.225 -0.0224,0 -0.0914,0.0663 -0.15319,0.1474 -0.0618,0.0811 -0.20625,0.23427 -0.32094,0.34046 -0.34192,0.31657 -1.04499,0.75815 -1.17703,0.73927 -0.0669,-0.01 -0.30751,-0.35217 -0.46998,-0.66932 -0.17404,-0.33972 -0.19752,-0.45869 -0.22018,-1.11566 -0.0182,-0.52791 -0.0295,-0.62716 -0.0919,-0.80742 -0.0942,-0.27188 -0.14033,-0.27648 -0.22793,-0.0227 -0.18497,0.53586 -0.60706,1.24598 -0.951,1.59996 -0.10127,0.10423 -0.3559,0.32535 -0.56582,0.49139 -0.40531,0.32057 -1.2873,0.97019 -1.31723,0.97019 -0.0538,0 -0.4153,-0.84593 -0.52794,-1.23551 -0.18542,-0.64128 -0.23492,-1.65318 -0.11084,-2.26575 0.0384,-0.18974 0.0804,-0.34499 0.0933,-0.34499 0.0339,0 0.21881,0.31293 0.34057,0.57646 0.12221,0.26451 0.18372,0.57018 0.18532,0.92093 0.002,0.44481 0.13005,1.02635 0.24142,1.0966 0.0645,0.0407 0.51067,-0.31664 0.96345,-0.77173 0.36784,-0.36972 0.4812,-0.54126 0.73345,-1.10995 0.28138,-0.63434 0.30887,-0.73884 0.30713,-1.1674 -8.9e-4,-0.20993 -0.0165,-0.43197 -0.0348,-0.49344 -0.027,-0.0907 -0.0256,-0.1147 0.007,-0.12732 0.0637,-0.0245 0.33538,0.0654 0.60469,0.19992 0.4266,0.21317 0.87334,0.71791 1.02681,1.16014 0.0479,0.13791 0.0643,0.29266 0.0852,0.80214 0.0154,0.3756 0.0428,0.69071 0.0675,0.77806 0.0475,0.16801 0.15157,0.38278 0.19987,0.41263 0.0411,0.0254 0.39215,-0.31772 0.58748,-0.57412 0.29853,-0.39184 0.63503,-1.19376 0.75771,-1.80568 0.0812,-0.4048 0.13093,-1.02234 0.11296,-1.40142 -0.008,-0.17437 -0.006,-0.32266 0.005,-0.32951 0.0111,-0.007 0.15815,0.0578 0.3268,0.14378 0.16864,0.0859 0.42883,0.20471 0.57819,0.26394 0.31201,0.12373 1.96674,0.58279 2.00824,0.55714 0.0152,-0.009 -0.0632,-0.11272 -0.17425,-0.22961 -0.26774,-0.28186 -0.69387,-0.8536 -0.87882,-1.1791 -0.23848,-0.41972 -0.43437,-0.9958 -0.72812,-2.14123 -0.15587,-0.60782 -0.3151,-1.35745 -0.34925,-1.6442 -0.01,-0.0807 -0.0571,-0.71493 -0.10555,-1.40931 -0.17701,-2.53764 -0.3485,-4.62705 -0.42773,-5.21151 -0.15498,-1.14313 -0.61867,-2.92945 -1.08843,-4.19306 -0.83228,-2.23874 -1.81555,-3.58565 -3.80173,-5.20776 -1.45266,-1.18636 -3.07429,-2.12549 -4.5177,-2.61629 -0.71452,-0.24297 -1.99434,-0.62908 -2.53969,-0.76621 -1.13568,-0.28559 -1.95489,-0.39621 -3.11253,-0.4203 -1.08692,-0.0226 -2.46097,0.0747 -3.83126,0.27146 -0.39296,0.0564 -1.86466,0.36069 -2.42762,0.50191 -0.0704,0.0177 -0.12673,-0.069 -0.24152,-0.37107 -0.10808,-0.28442 -0.81003,-1.53489 -1.12887,-2.011 -0.29026,-0.4334 -1.01452,-1.11599 -1.58384,-1.49271 -0.76787,-0.5081 -1.69849,-0.75438 -2.84531,-0.75299 -0.96045,0.001 -2.2063,0.20858 -2.90266,0.48323 -0.64515,0.25447 -1.15534,0.60442 -1.73013,1.18677 -0.55865,0.56598 -0.91656,1.07643 -1.11385,1.58853 -0.0882,0.22899 -0.32725,1.34606 -0.38639,1.80567 -0.0448,0.34788 -0.0446,1.14309 3.6e-4,1.43868 0.15206,1.00133 0.68526,2.1993 1.3164,2.9576 0.19307,0.23198 -0.062,0.55166 0.007,0.53885 0.0427,-0.008 -0.7075,0.82439 -0.48473,0.72644 0.49732,-0.21869 0.82372,-0.48037 0.82372,-0.48037 0,0 -0.206,-0.13148 -0.2448,-0.0792 -0.37835,0.50987 0.72153,0.11732 0.55981,0.37376 -0.10694,0.16956 -0.33498,0.52629 -0.50678,0.79274 -0.84519,1.31088 -1.17263,1.98334 -1.59406,3.27371 -0.41454,1.26927 -0.72932,2.51857 -1.0468,4.15452 -0.31508,1.62362 -0.6272,2.60955 -1.20509,3.80671 -0.31585,0.65431 -0.48363,0.94189 -0.99949,1.71309 -0.82129,1.22783 -1.55586,2.26039 -1.90432,2.67682 -0.13067,0.15616 -0.23759,0.29353 -0.23759,0.3053 0,0.0843 1.02182,-0.12126 2.33226,-0.46916 0.40547,-0.10765 0.7433,-0.18316 0.75721,-0.16925 0.0544,0.0544 -0.26655,0.83687 -0.54043,1.31758 -0.32197,0.56513 -0.57684,1.14572 -0.80296,1.82916 -0.15666,0.4735 -0.27664,0.94934 -0.24723,0.98056 0.0545,0.0579 1.19405,-0.21374 1.66267,-0.39635 0.17474,-0.0681 0.54676,-0.2406 0.82671,-0.38337 0.27994,-0.14276 0.51446,-0.25957 0.52115,-0.25957 0.069,0 -0.21606,0.58477 -0.48238,0.98946 -0.18186,0.27637 -0.34692,0.45976 -0.60648,0.67385 -0.0807,0.0666 -0.1358,0.13248 -0.12234,0.14641 0.0135,0.0139 0.19182,0.0245 0.39637,0.0235 0.45277,-0.002 0.51412,-0.0217 1.07656,-0.34276 0.44419,-0.25354 0.59084,-0.35414 1.08634,-0.74517 0.33562,-0.26486 0.47844,-0.34601 0.55634,-0.31612 0.0293,0.0112 0.11588,0.23628 0.23998,0.62362 0.10679,0.33333 0.23948,0.70504 0.29486,0.82604 0.1268,0.27703 0.30784,0.56104 0.35126,0.55102 0.0182,-0.004 0.23804,-0.25206 0.48851,-0.55081 0.25046,-0.29874 0.55265,-0.63718 0.67153,-0.75207 0.44357,-0.42872 0.99673,-0.86276 1.09955,-0.86276 0.0606,0 0.11363,0.12364 0.33693,0.78567 0.19827,0.58787 0.35532,0.92092 0.49301,1.04552 0.0595,0.0539 0.0635,0.0527 0.24523,-0.0705 0.23797,-0.16136 0.35179,-0.26094 0.55796,-0.48816 0.19799,-0.21821 0.65093,-0.62656 0.69497,-0.62656 0.0687,0 0.0981,0.13047 0.0855,0.37874 -0.0203,0.39782 -0.12529,0.56445 -0.68388,1.08502 -0.35187,0.32792 -0.59977,0.49789 -0.89555,0.61403 -0.35955,0.14117 -0.40142,0.14263 -0.51896,0.018 -0.13693,-0.14519 -0.24941,-0.37819 -0.39009,-0.80806 -0.16425,-0.5019 -0.20726,-0.61243 -0.23831,-0.61243 -0.0524,0 -0.27196,0.22253 -0.46281,0.46914 -0.18071,0.23351 -0.8699,0.98808 -1.135,1.24266 -0.17338,0.16651 -0.44482,0.3728 -0.49051,0.3728 -0.0432,0 -0.42215,-0.41822 -0.67831,-0.7487 -0.17589,-0.22692 -0.27808,-0.41838 -0.44662,-0.83677 -0.0618,-0.15341 -0.12232,-0.29054 -0.13451,-0.30472 -0.0122,-0.0142 -0.12551,0.0726 -0.25181,0.19289 -0.26162,0.24915 -0.54947,0.4684 -0.74555,0.56789 -0.27499,0.13953 -0.46516,0.16763 -1.11361,0.16454 -0.33104,-0.002 -0.70099,-0.0159 -0.8221,-0.0319 -0.12111,-0.016 -0.24989,-0.0294 -0.28617,-0.0299 -0.0508,-8.8e-4 -0.1608,0.11873 -0.47911,0.52025 -0.22724,0.28664 -0.48965,0.61489 -0.58316,0.72944 -0.43157,0.52877 -1.13246,1.53977 -1.40256,2.02312 -0.48347,0.86521 -1.16515,2.57747 -1.50447,3.77898 -0.25742,0.91151 -0.34342,1.4135 -0.4617,2.69504 -0.0668,0.72356 -0.0801,1.0208 -0.081,1.80568 -0.001,0.89642 0.002,0.95908 0.0777,1.36526 0.14366,0.7764 0.26871,1.12982 0.67006,1.89377 0.52817,1.00538 0.83327,1.46361 1.2612,1.89419 0.43237,0.43506 0.96581,0.75222 1.64619,0.97874 1.21302,0.40385 3.60085,0.51332 5.81141,0.26641 0.86046,-0.0961 1.7511,-0.26983 2.48771,-0.48523 1.00082,-0.29266 1.58041,-0.57458 2.53995,-1.23547 1.15813,-0.79767 1.29815,-0.8991 1.67281,-1.21169 0.41403,-0.34544 0.63187,-0.56946 1.11995,-1.15177 0.45631,-0.54441 0.57353,-0.70356 0.71818,-0.97503 0.14966,-0.28088 0.21087,-0.51037 0.21087,-0.7906 0,-0.41339 -0.1226,-0.73279 -0.49397,-1.28691 -0.51991,-0.77576 -1.00687,-1.10879 -1.78148,-1.21834 -0.40745,-0.0576 -1.37168,-0.0495 -1.76164,0.0148 -0.40567,0.0669 -0.92243,0.18875 -1.52675,0.35992 -1.06507,0.30171 -1.10807,0.30942 -1.81495,0.32581 -1.24183,0.0288 -2.20181,-0.0954 -2.55979,-0.33123 -0.24306,-0.16011 -0.53467,-0.62014 -0.63201,-0.99703 -0.0865,-0.33484 -0.10356,-0.82193 -0.0457,-1.30484 0.0572,-0.47812 0.19207,-1.15857 0.29693,-1.49843 0.0423,-0.13726 0.13414,-0.45929 0.204,-0.71563 0.083,-0.30446 0.14803,-0.48708 0.18764,-0.52669 l 0.0606,-0.0607 0.16717,0.11513 c 0.29052,0.2001 0.45826,0.47047 0.41386,0.6671 -0.008,0.0361 -0.0829,0.31008 -0.16604,0.60883 -0.23432,0.84164 -0.33372,1.36139 -0.33693,1.76163 -0.003,0.32016 0.002,0.35058 0.0985,0.58721 0.33177,0.81806 1.06669,0.94372 3.15779,0.53994 0.20994,-0.0405 0.70541,-0.15136 1.10105,-0.24626 0.39563,-0.0949 0.80521,-0.18849 0.91018,-0.20797 0.2756,-0.0511 1.85378,-0.0532 2.158,-0.003 0.65116,0.10785 1.05152,0.25753 1.51172,0.56514 0.69858,0.46696 1.13635,0.97718 1.39297,1.6235 0.20924,0.52701 0.30531,1.33883 0.21173,1.78923 -0.11892,0.57233 -0.43573,1.12895 -1.03221,1.81363 -0.30615,0.35141 -0.6329,0.64654 -1.68522,1.52213 -1.46993,1.22307 -1.9329,1.54739 -2.83592,1.98661 -1.22791,0.59723 -2.52946,0.92439 -4.44813,1.11808 -0.65538,0.0662 -2.72399,0.0757 -3.27371,0.015 -0.5287,-0.0583 -1.32807,-0.17821 -1.52305,-0.22846 -0.0949,-0.0245 -0.19259,-0.0367 -0.21719,-0.0273 -0.0397,0.0153 -0.0427,0.27292 -0.0268,2.3139 0.0169,2.16272 0.0335,2.76134 0.10984,3.97028 0.0904,1.4315 0.35447,2.4789 0.91014,3.61041 0.12662,0.25785 0.22495,0.4741 0.2185,0.48055 -0.0198,0.0199 -0.5388,-0.46858 -0.70759,-0.66595 -0.0876,-0.1025 -0.2046,-0.28427 -0.25989,-0.40394 -0.10111,-0.21884 -0.17604,-0.29054 -0.22367,-0.21407 -0.0497,0.0798 -0.14159,0.54471 -0.17346,0.87776 -0.0472,0.49292 0.0356,1.08902 0.24568,1.76898 0.0387,0.12515 0.0597,0.22754 0.0467,0.22754 -0.013,0 -0.14822,-0.13212 -0.30056,-0.2936 -0.15233,-0.16149 -0.29062,-0.29361 -0.30731,-0.29361 -0.0339,0 -0.0613,0.10191 -0.28633,1.06885 -0.40527,1.74101 -0.57516,2.74554 -0.70312,4.15734 -0.12322,1.35955 -0.16517,2.40594 -0.16563,4.13175 -4.5e-4,1.60245 -0.0109,1.51109 0.19975,1.74426 0.14252,0.15775 0.30237,0.23653 0.45701,0.22526 l 0.12246,-0.009 0.0636,-0.31366 c 0.0849,-0.41868 0.12082,-0.47384 0.40024,-0.61483 0.32938,-0.16619 0.36339,-0.13429 0.42966,0.40294 0.0348,0.28183 0.0724,0.37561 0.16837,0.41934 0.11567,0.0527 0.54992,0.0919 0.66528,0.06 0.12462,-0.0344 0.15238,-0.0661 0.19394,-0.22159 0.0907,-0.3393 0.31528,-0.36493 0.50705,-0.0579 0.1939,0.31049 0.26654,0.33906 0.53922,0.21208 0.22874,-0.10651 0.29886,-0.20937 0.31735,-0.46552 0.0819,-1.13494 0.17301,-1.82277 0.31579,-2.38507 0.0772,-0.30401 0.61427,-2.08016 0.7506,-2.48227 0.32634,-0.96258 0.88541,-2.17946 1.3656,-2.97236 0.49812,-0.82251 1.14501,-1.68122 1.88587,-2.5034 0.97235,-1.07907 1.54142,-1.72694 2.18611,-2.48879 0.38581,-0.45593 0.79664,-0.93466 0.91295,-1.06385 0.25102,-0.27881 0.39061,-0.53867 0.45387,-0.84498 0.0603,-0.2919 0.059,-0.41231 -0.005,-0.46688 -0.062,-0.0528 -0.45022,-0.27438 -0.70837,-0.40423 -0.24407,-0.12278 -0.44259,-0.31139 -0.56041,-0.53244 -0.0521,-0.0978 -0.0895,-0.18313 -0.0831,-0.18958 0.006,-0.006 0.15301,0.0677 0.32568,0.16475 0.79058,0.44438 1.47577,0.59778 2.66303,0.59621 0.66204,-8.9e-4 0.98241,-0.0363 1.80568,-0.19946 0.22797,-0.0452 0.36441,-0.06 0.38657,-0.0419 0.0334,0.0272 0.20538,0.43515 0.29502,0.69982 0.0749,0.22102 0.47166,1.10288 0.71352,1.58574 0.32062,0.64012 0.73001,1.36775 0.9829,1.74696 0.50613,0.75897 1.8099,2.15254 2.60686,2.78641 0.76875,0.61144 1.22663,1.12268 1.27208,1.42034 0.0542,0.35501 -0.11865,1.26533 -0.36362,1.91494 -0.0639,0.16956 -0.32429,0.77733 -0.57856,1.35059 -0.98369,2.21779 -1.39729,3.22538 -1.70538,4.15452 -0.27391,0.82607 -0.31686,1.06546 -0.29498,1.64421 0.0426,1.12674 0.25665,1.65304 0.92988,2.28636 0.35235,0.33147 0.61971,0.51949 1.70428,1.19856 1.42789,0.89403 1.86355,1.23574 2.05288,1.61018 0.0528,0.10439 0.19831,0.50029 0.32339,0.87978 0.31228,0.94744 0.77564,2.02449 1.03577,2.40758 0.17597,0.25915 0.6643,0.84045 0.89089,1.06052 l 0.23038,0.22375 0.29354,0.0653 c 0.16145,0.0359 0.32657,0.0762 0.36694,0.0896 0.0404,0.0134 -4.5e-4,0.33977 0.0572,0.34104 0.1006,0.002 -0.009,0.0653 0.056,-0.0969 z m -3.67333,-50.25664 c -0.63595,-0.0975 -1.1458,-0.24123 -1.81367,-0.51139 -0.27085,-0.10956 -0.58794,-0.25929 -0.70466,-0.33272 -0.87395,-0.54986 -1.66168,-1.70415 -2.1012,-3.07897 -0.27004,-0.84468 -0.41254,-1.90493 -0.4184,-3.1132 -0.002,-0.32969 -0.012,-0.61417 -0.0232,-0.63221 -0.0111,-0.018 -0.14533,-0.0731 -0.2982,-0.12241 -0.40904,-0.13193 -1.00008,-0.43548 -1.27953,-0.65715 -0.50476,-0.40043 -0.96458,-1.13726 -1.16254,-1.86292 -0.0898,-0.3293 -0.0893,-0.98183 9.8e-4,-1.31236 0.0806,-0.29504 0.28166,-0.71534 0.48214,-1.00797 0.19869,-0.29004 0.67807,-0.76895 0.96968,-0.96875 0.48821,-0.3345 1.09083,-0.5302 1.70959,-0.55518 l 0.32297,-0.0131 -0.26424,0.15311 c -1.10217,0.63859 -1.85322,1.32569 -2.19792,2.01074 -0.19902,0.39551 -0.23909,0.56822 -0.23834,1.02703 7.9e-4,0.46681 0.0333,0.61167 0.22443,0.99827 0.50508,1.02172 1.50454,1.49778 3.0335,1.44488 0.48669,-0.0168 1.08258,-0.10517 2.22008,-0.32909 0.72229,-0.14219 1.33497,-0.23984 1.93483,-0.30839 0.87156,-0.0996 1.17482,-0.075 1.85768,0.15041 0.42404,0.14 1.09579,0.41532 1.46167,0.59908 0.34702,0.17429 0.92966,0.40501 1.25064,0.49526 0.39147,0.11007 0.67733,0.14543 1.03121,0.12756 0.39143,-0.0198 0.68243,-0.10804 1.04902,-0.31827 0.72936,-0.41824 1.14274,-0.83779 1.45386,-1.47559 0.40115,-0.82235 0.34383,-1.45147 -0.20636,-2.26493 -0.2317,-0.34257 -0.62118,-0.66563 -1.45994,-1.21098 -0.21385,-0.13904 -0.38275,-0.25886 -0.37535,-0.26627 0.0199,-0.0199 0.34523,0.0458 0.64333,0.12987 0.47247,0.13325 1.11851,0.47884 1.50058,0.80272 0.28891,0.24492 0.57911,0.72839 0.76943,1.28189 0.10833,0.31506 0.10995,0.32643 0.11066,0.77484 6.2e-4,0.38953 -0.009,0.48892 -0.0671,0.68997 -0.14799,0.5124 -0.51026,1.14011 -0.82754,1.43384 -0.33176,0.30716 -1.25963,0.90222 -1.71452,1.09956 -0.22972,0.0996 -0.84346,0.27054 -0.97163,0.27054 -0.0367,0 -0.0818,0.0183 -0.10035,0.0406 -0.0185,0.0223 -0.1183,0.34932 -0.22174,0.72668 -0.59131,2.15712 -0.9434,3.16812 -1.32403,3.80189 -0.66546,1.10799 -1.8357,1.98648 -2.94928,2.214 -0.2994,0.0612 -1.08664,0.1028 -1.30655,0.0691 z m 1.0423,-0.76317 c 1.07487,-0.18588 1.81608,-0.73714 2.4726,-1.83895 0.27096,-0.45473 0.38464,-0.71863 0.56425,-1.30988 0.29414,-0.96829 0.83828,-3.06794 0.80396,-3.10225 -0.01,-0.01 -0.29319,-0.13419 -0.63,-0.27667 -0.33681,-0.14248 -0.99689,-0.42542 -1.46684,-0.62876 -0.9022,-0.39036 -1.04221,-0.43795 -1.44705,-0.49186 -0.42768,-0.0569 -0.8078,-0.0204 -1.85303,0.17795 -4.309,1.00033 0.29212,-0.47462 -2.4046,0.39961 -0.0448,-0.0277 -1.27473,0.15611 -1.31167,0.19598 -0.0256,0.0276 -0.028,0.19028 -0.01,0.63897 0.0632,1.53446 0.15962,2.22147 0.41834,2.9801 0.42833,1.25599 1.00195,2.12916 1.69266,2.57658 0.98654,0.63904 2.06605,0.87026 3.17095,0.67918 z m 0.12849,-8.98081 c -0.50221,-0.10923 -1.18177,-0.58126 -1.52212,-1.05726 -0.3399,-0.47535 -0.46136,-0.94702 -0.40025,-1.55422 0.0172,-0.17123 0.0521,-0.35141 0.0774,-0.4004 0.086,-0.16637 0.72311,-0.5408 1.29448,-0.76082 0.43914,-0.16909 0.69654,-0.22068 1.09731,-0.21991 0.35338,8.8e-4 0.38037,0.005 0.72701,0.12388 0.40278,0.13783 1.03159,0.44706 1.25483,0.61709 0.27778,0.21158 0.43616,0.57631 0.43654,1.00528 3.5e-4,0.3016 -0.0444,0.50141 -0.17689,0.79154 -0.0838,0.1834 -0.1488,0.26711 -0.40004,0.51489 -0.32818,0.32366 -0.66033,0.57133 -0.97668,0.72829 -0.26056,0.12927 -0.34767,0.1559 -0.68861,0.2105 -0.3322,0.0532 -0.48249,0.0534 -0.72298,0.001 z m 8.33718,-4.72677 c -1.10181,-0.19992 -1.95839,-0.9808 -2.23036,-2.03326 -0.10472,-0.40526 -0.10488,-0.90174 -4.4e-4,-1.30596 0.27363,-1.0588 1.15857,-1.85584 2.25857,-2.03424 1.23864,-0.20089 2.43332,0.38613 2.99361,1.47095 0.20786,0.40246 0.26136,0.62274 0.27734,1.14205 0.0123,0.40055 0.007,0.46621 -0.0601,0.72556 -0.3184,1.23347 -1.45571,2.08865 -2.76056,2.07573 -0.14726,-0.002 -0.36241,-0.0198 -0.47813,-0.0408 z m -16.31963,-1.86569 c -1.25404,-0.15826 -2.25956,-1.1018 -2.45317,-2.30194 -0.0544,-0.33736 -0.022,-0.85225 0.074,-1.17657 0.2172,-0.73356 0.73514,-1.34093 1.43965,-1.68823 0.43889,-0.21636 0.65248,-0.26822 1.17442,-0.28512 0.40305,-0.0131 0.46532,-0.008 0.7341,0.0607 0.61457,0.15687 1.0479,0.4034 1.44335,0.82116 0.53349,0.5636 0.76829,1.18774 0.73566,1.95549 -0.0306,0.72009 -0.28045,1.28197 -0.80166,1.80286 -0.58905,0.58868 -1.53107,0.91455 -2.34633,0.81166 z m 17.68207,65.97502 c 0.24329,-0.11044 0.37367,-0.44241 0.40667,-1.03548 0.0272,-0.48882 -0.10406,-1.01455 -0.26083,-1.04475 -0.0596,-0.0115 -0.38339,0.13456 -0.48645,0.21945 l -0.0694,0.0571 0.0937,0.27293 c 0.14192,0.41334 0.17007,0.71052 0.1106,1.1676 -0.0593,0.45552 -0.0467,0.47769 0.20569,0.36311 z m -31.43914,-8.83768 c 0.17498,-0.0893 0.23649,-0.18647 0.23649,-0.37372 0,-0.0877 -0.0143,-0.18613 -0.0317,-0.21875 -0.0419,-0.0783 -0.24905,-0.17028 -0.38527,-0.17109 -0.17628,-0.001 -0.3755,0.10604 -0.37596,0.2021 -4.4e-4,0.0882 0.16167,0.45004 0.23955,0.53472 0.0916,0.0996 0.16237,0.10558 0.31692,0.0267 z m 1.64229,-0.0546 c 0.0883,-0.12406 0.17968,-0.37484 0.17968,-0.49329 0,-0.13294 -0.0887,-0.25808 -0.2598,-0.3666 -0.16121,-0.10224 -0.23831,-0.10503 -0.43018,-0.0156 -0.22814,0.10638 -0.24277,0.13673 -0.16205,0.33616 0.093,0.22981 0.25267,0.49119 0.34377,0.56286 0.11296,0.0888 0.25583,0.0786 0.32858,-0.0235 z m -3.44357,-0.24292 c 0.11221,-0.12401 0.0462,-0.57152 -0.0922,-0.62461 -0.14714,-0.0565 -0.30697,0.0327 -0.30697,0.17116 0,0.0396 0.0148,0.14083 0.0328,0.22501 0.0549,0.25593 0.23808,0.37017 0.36633,0.22844 z m 37.28517,-63.99239 c 0.36093,-0.45721 0.98336,-1.31123 1.21092,-1.66147 0.37614,-0.57892 0.65416,-1.22072 0.77352,-1.7857 0.0767,-0.36299 0.0934,-1.17588 0.0308,-1.49191 -0.19645,-0.99022 -0.71345,-1.78112 -1.56232,-2.39002 -0.33009,-0.23677 -1.03755,-0.59517 -1.46577,-0.74256 -1.60711,-0.55314 -3.14057,-0.34113 -4.68302,0.64746 -0.57609,0.36924 -1.51208,1.08964 -1.51208,1.16381 0,0.0157 0.0694,0.0567 0.15415,0.0911 0.33415,0.13569 0.99428,0.49216 1.33504,0.72091 0.19734,0.13248 0.37289,0.24086 0.3901,0.24086 0.0172,0 -0.31379,0.3772 -0.10849,0.21116 0.35314,-0.12374 0.72401,0.2774 1.0397,0.47829 0.68774,0.42937 1.80727,1.43731 2.46346,2.2179 0.61041,0.72613 1.19466,1.67237 1.50959,2.4449 0.056,0.13725 0.0809,0.16842 0.12943,0.16148 0.0356,-0.005 0.15607,-0.13019 0.29502,-0.3062 z"
           style="fill:#ffffff;fill-opacity:1;stroke:#ffffff;stroke-width:1.04033732;stroke-miterlimit:4;stroke-opacity:0.9831461;stroke-dasharray:none"
           inkscape:export-xdpi="15"
           inkscape:export-ydpi="15"
           sodipodi:nodetypes="ssscsssssssssssssssscscssssssscssscscssssccssssscssscsscsscssssssssssssssssscssssssssssssssssssssscsssssscssssccscscccssssssssssssscssscssssssssscsssssssssssssssscsssccssssscsccscsccccccccsssssssssssssssssssssssssssssssscssssssssscsssssssssssssscsscscssscssssccccssscssssssssssssssssscssscssssssssssssssssssscsssssscssssssssssssssssssscsccccsssssssssssssssssssssssssssscsssssssccssssssssscssscssssssssssssccsssccssssssssssscsscssscssssssssssssssscssscccsssssssssssscsssssssssscsssscsssssssscsssccssssssscccsssscssssssscsssscccscsssssccsssssssssssssscsssssscscsssssscsssssssssssssssssccssss" />
        <path
           style="fill:#ffffff;fill-opacity:1;stroke:#ffffff;stroke-width:1.87260699;stroke-linecap:round;stroke-linejoin:round;stroke-miterlimit:4;stroke-opacity:1;stroke-dasharray:none"
           d="m 144.51043,206.90826 c 2.60418,-2.89738 5.66826,-4.85281 9.9432,-5.92246"
           id="path2983"
           inkscape:connector-curvature="0"
           sodipodi:nodetypes="cc" />
      </g>
    </g>
  </g>
</svg>
