<?xml version="1.0" encoding="UTF-8" standalone="no"?>
<!-- Created with Inkscape (http://www.inkscape.org/) -->

<svg
   xmlns:dc="http://purl.org/dc/elements/1.1/"
   xmlns:cc="http://creativecommons.org/ns#"
   xmlns:rdf="http://www.w3.org/1999/02/22-rdf-syntax-ns#"
   xmlns:svg="http://www.w3.org/2000/svg"
   xmlns="http://www.w3.org/2000/svg"
   xmlns:sodipodi="http://sodipodi.sourceforge.net/DTD/sodipodi-0.dtd"
   xmlns:inkscape="http://www.inkscape.org/namespaces/inkscape"
   width="54.305157"
   height="53.985786"
   id="svg3822"
   version="1.1"
   inkscape:version="0.48.3.1 r9886"
   sodipodi:docname="mosfet.svg">
  <defs
     id="defs3824" />
  <sodipodi:namedview
     id="base"
     pagecolor="#000000"
     bordercolor="#666666"
     borderopacity="1.0"
     inkscape:pageopacity="1"
     inkscape:pageshadow="2"
     inkscape:zoom="7.9195959"
     inkscape:cx="35.052852"
     inkscape:cy="28.843164"
     inkscape:document-units="px"
     inkscape:current-layer="layer1"
     showgrid="false"
     fit-margin-top="0"
     fit-margin-left="0"
     fit-margin-right="0"
     fit-margin-bottom="0"
     inkscape:window-width="1600"
     inkscape:window-height="850"
     inkscape:window-x="0"
     inkscape:window-y="0"
     inkscape:window-maximized="1" />
  <metadata
     id="metadata3827">
    <rdf:RDF>
      <cc:Work
         rdf:about="">
        <dc:format>image/svg+xml</dc:format>
        <dc:type
           rdf:resource="http://purl.org/dc/dcmitype/StillImage" />
        <dc:title></dc:title>
      </cc:Work>
    </rdf:RDF>
  </metadata>
  <g
     inkscape:label="Layer 1"
     inkscape:groupmode="layer"
     id="layer1"
     transform="translate(-173.1113,-1027.4715)">
    <g
       id="g3416"
       transform="matrix(1.2446851,0,0,1.2446851,-1047.6432,-538.2255)"
       inkscape:export-filename="/mnt/work/projects/volat3/soft/matrixgui/images/icons/chibi.png"
       inkscape:export-xdpi="90"
       inkscape:export-ydpi="90"
       style="stroke:#ffffff;stroke-width:0.35433072;stroke-miterlimit:4;stroke-opacity:1;stroke-dasharray:none">
      <path
         sodipodi:nodetypes="ccsssssscscssccssssssssscsscccccssssccccccscccsccssssssssssssssccsssssccssssssssssssssssssccssssscsccsssc"
         inkscape:connector-curvature="0"
         inkscape:export-ydpi="600"
         inkscape:export-xdpi="600"
         inkscape:export-filename="c:\temp\path3827.png"
         d="m 998.82381,1277.7624 c -1.8536,-1.0505 -0.30793,-4.962 1.89819,-4.1195 m 8.2795,-1.0703 c -2.7971,-0.6293 -0.8863,2.4446 0.2424,3.0089 0.4945,0.2473 1.2419,-0.094 1.283,-0.9003 0.04,-0.7786 -0.5756,-1.8949 -1.5254,-2.1086 z m -5.0037,0.3305 c -0.353,-0.473 -0.864,-0.2967 -1.4363,-0.097 -1.2508,0.4376 -1.9763,2.6209 -1.1639,3.0258 1.3757,0.5142 3.5534,-1.6516 2.6002,-2.9293 z m -0.5496,16.5516 c 0.6934,0.064 1.6858,-0.3283 2.2617,-0.04 0.5983,0.2991 3.3276,3.0448 3.6955,3.4127 0.4304,0.4303 0.4957,0.4809 0.9747,0.7595 m 3.6726,0.9964 c 0.7629,0.2162 0.7605,-0.1446 1.6532,0.7482 0.8249,0.8249 -1.5153,1.6156 -1.8903,2.278 -1.3548,2.3935 1.6091,3.0937 2.274,1.5386 0.4451,-1.0409 0.219,-2.0988 1.1511,-1.9992 1.0167,0.1086 0.1442,1.3944 0.5514,2.565 0.6539,1.8797 3.6918,0.9861 2.6594,-1.111 -0.427,-0.8674 -1.8138,-1.722 -0.9895,-2.4031 0.7749,-0.6403 0.8245,0.4512 2.2819,0.6866 2.6612,0.4299 2.6599,-2.0617 0.9434,-2.6456 -1.1188,-0.3805 -2.2991,0.7948 -2.5791,-0.1412 -0.2857,-0.9464 0.7801,-0.5743 1.4646,-1.6572 1.1818,-1.8696 -1.683,-3.5528 -2.858,-1.4123 -1.2862,2.3433 -0.9472,2.7455 -1.3126,2.8272 -0.921,-0.1356 -0.4689,-0.8243 -0.7633,-1.0414 m -2.6968,-1.5833 c -2.7319,-2.0224 -5.0666,-2.6606 -5.9099,-5.1903 m -7.916,-1.9386 c 0.8766,-1.7609 0.2946,-3.738 -0.24782,-4.5848 -1.08637,-1.6961 -1.47523,-2.4375 0.42622,-5.1936 0.5152,-0.7467 0.7805,-1.7091 2.0124,-2.325 1.7327,-0.8663 3.8197,0.6974 4.9175,0.1486 0.3805,-0.1904 0.9939,-1.0353 1.3307,-1.2598 m -2.8753,7.0364 c 0.9657,3.3197 2.6262,2.0033 3.1177,-0.1281 m -8.4505,0.6242 c 3.2319,-0.4467 8.4937,-1.3048 11.9259,0.028 m -11.9438,11.0859 c 3.9416,-3.2791 3.6777,-6.8881 1.0875,-9.2313 -0.5323,-0.4815 -0.064,-1.0849 -1.0533,-1.897 m 7.79,-14.9011 c -2.6914,-0.21 -5.7627,0.5672 -7.7949,2.1002 -2.23683,1.6777 -3.83519,3.1858 -4.76571,5.9774 -1.03427,3.1028 -0.87171,10.3452 4.84651,9.6123 m -11.17337,7.6088 c 2.63202,2.7386 3.401,1.0653 3.89001,0.3916 0.57979,-0.7987 3.51084,-0.8031 2.60659,1.3613 -0.34331,0.8217 -2.27609,0.5822 -2.05656,1.4855 0.26315,1.0828 1.61495,-0.063 2.61744,0.015 2.26865,0.1787 1.24642,3.2426 -0.45204,2.7696 -1.73849,-0.4842 -2.17461,-1.7493 -2.96294,-0.8657 -0.82663,0.9265 1.09894,0.8649 1.2423,2.7736 0.16743,2.2295 -2.42377,1.9657 -2.98184,0.6194 -0.31066,-0.7495 0.58688,-2.5469 -0.53282,-2.5469 -1.07702,0 -0.48847,1.3978 -0.77257,2.0316 -0.82798,1.8469 -3.76428,0.071 -2.16222,-1.6196 1.50629,-1.5892 2.78855,-0.5671 1.2679,-3.1604 -1.16931,-1.9942 -4.68799,-3.1967 -5.41196,-4.6446 -1.02763,-2.0553 0.48304,-5.8383 3.79645,-4.0388 1.25268,0.6803 3.27248,1.6081 3.99231,1.848 m 17.09812,-14.3348 c 1.8212,-0.076 2.536,1.9043 3.1423,3.5611 0.5406,1.4775 1.0684,2.2083 0.6462,3.8974 -0.5896,2.3583 -1.938,4.3702 -2.8272,5.6745 -1.7777,2.6077 -4.1613,5.2147 -7.5929,5.6745 -1.92476,0.2579 -5.64751,-0.9895 -8.07755,-0.9895 -3.22992,0 -5.78861,0.8087 -6.70438,-1.9386 m 0.84653,-19.7236 c 1.51262,-0.6895 0.79581,-1.7877 1.62895,-2.2252 0.72795,-0.3822 1.71521,-0.4092 2.46163,-0.7492 0.9925,-0.452 0.31014,-2.9027 -0.92283,-2.903 -1.53006,-3e-4 -1.42368,1.9549 -2.42243,1.2959 -0.78811,-0.5201 0.41899,-1.187 0.55494,-2.3824 0.26175,-2.3017 -2.77792,-1.9565 -2.69147,-0.4139 0.0478,0.8529 1.21073,2.2369 0.21668,2.4732 -1.19367,0.2837 -0.31016,-2.1465 -2.19802,-2.6316 -1.32798,-0.3412 -2.46023,1.5075 -1.21448,2.5884 0.62952,0.5462 1.97905,0.4654 1.8688,1.1781 -0.20342,1.3151 -1.50535,-0.184 -2.57824,-0.039 -1.90505,0.2567 -1.51533,2.6639 0.0767,2.815 1.52823,0.1451 2.95284,-0.5985 3.08083,-0.042 0.2167,0.9429 -1.70263,0.481 -1.99573,1.3259 -0.43645,1.258 0.34193,2.1485 0.96035,3.0172 1.80953,2.5421 2.97479,0.9889 3.78175,1.7958 0.77957,0.7796 -1.00139,3.7789 -1.21569,4.814 -0.31284,1.5109 -0.1562,3.6671 0.32716,5.1214 0.21286,0.6405 0.22081,1.2272 0.65026,1.6302 m 20.28534,-12.8673 c -3.1084,3.6915 -5.2169,-2.3472 -2.8419,-3.3024 1.5285,-0.6149 7.0694,-0.634 10.2989,5.3311 2.0388,3.7658 2.2907,7.0335 1.9386,9.7739 -0.3326,2.5887 -0.4209,4.0038 -1.8982,6.2197 -0.6155,0.9233 -1.6402,2.0581 -2.504,2.706 -3.8801,2.91 -5.6027,3.2228 -12.9241,3.8772 1.2664,1.4659 3.1186,1.1836 4.5805,1.2777 2.4029,0.1548 5.6776,-0.5101 7.455,-1.3988 10.7103,-5.5636 13.0278,-15.292 9.3072,-24.936 -2.427,-5.9343 -7.548,-9.2989 -12.9576,-10.0676 -5.4096,-0.7687 -8.2518,0.2105 -12.20356,2.8451 -1.25911,0.8393 -2.53902,2.5451 -3.90257,3.2269 -1.36319,0.6816 -3.28362,-0.014 -5.12232,0.6601"
         style="fill:none;stroke:#ffffff;stroke-width:1.0629921;stroke-linecap:round;stroke-linejoin:round;stroke-miterlimit:4;stroke-opacity:1;stroke-dasharray:none"
         id="path3819" />
      <g
         inkscape:export-ydpi="600"
         inkscape:export-xdpi="600"
         inkscape:export-filename="c:\temp\path3827.png"
         transform="matrix(0.39691475,0,0,0.39691475,973.65904,1308.8446)"
         id="g3767"
         style="stroke:#ffffff;stroke-width:0.89271235;stroke-miterlimit:4;stroke-opacity:1;stroke-dasharray:none" />
    </g>
  </g>
</svg>
