<?xml version="1.0" encoding="UTF-8" standalone="no"?>
<!-- Created with Inkscape (http://www.inkscape.org/) -->

<svg
   xmlns:dc="http://purl.org/dc/elements/1.1/"
   xmlns:cc="http://creativecommons.org/ns#"
   xmlns:rdf="http://www.w3.org/1999/02/22-rdf-syntax-ns#"
   xmlns:svg="http://www.w3.org/2000/svg"
   xmlns="http://www.w3.org/2000/svg"
   xmlns:sodipodi="http://sodipodi.sourceforge.net/DTD/sodipodi-0.dtd"
   xmlns:inkscape="http://www.inkscape.org/namespaces/inkscape"
   width="42.251728"
   height="52.326164"
   id="svg3822"
   version="1.1"
   inkscape:version="0.48.3.1 r9886"
   sodipodi:docname="quality.svg">
  <defs
     id="defs3824" />
  <sodipodi:namedview
     id="base"
     pagecolor="#000000"
     bordercolor="#666666"
     borderopacity="1.0"
     inkscape:pageopacity="1"
     inkscape:pageshadow="2"
     inkscape:zoom="7.9195959"
     inkscape:cx="30.416178"
     inkscape:cy="42.099243"
     inkscape:document-units="px"
     inkscape:current-layer="layer1"
     showgrid="false"
     fit-margin-top="0"
     fit-margin-left="0"
     fit-margin-right="0"
     fit-margin-bottom="0"
     inkscape:window-width="1600"
     inkscape:window-height="850"
     inkscape:window-x="0"
     inkscape:window-y="0"
     inkscape:window-maximized="1" />
  <metadata
     id="metadata3827">
    <rdf:RDF>
      <cc:Work
         rdf:about="">
        <dc:format>image/svg+xml</dc:format>
        <dc:type
           rdf:resource="http://purl.org/dc/dcmitype/StillImage" />
        <dc:title></dc:title>
      </cc:Work>
    </rdf:RDF>
  </metadata>
  <g
     inkscape:label="Layer 1"
     inkscape:groupmode="layer"
     id="layer1"
     transform="translate(-153.12551,-1009.5572)">
    <g
       transform="matrix(0.08954707,0,0,0.08954707,165.6691,751.76152)"
       id="g3895"
       inkscape:export-filename="/mnt/work/projects/volat3/soft/matrixgui/images/icons/sun.png"
       inkscape:export-xdpi="90"
       inkscape:export-ydpi="90"
       style="fill:#ffffff;fill-opacity:1">
      <g
         id="g3878"
         style="fill:#ffffff;fill-opacity:1">
        <rect
           style="fill:#ffffff;fill-opacity:1;stroke:none"
           id="rect3845"
           width="141.73228"
           height="141.73228"
           x="4.9980898"
           y="3321.4944" />
        <path
           inkscape:connector-curvature="0"
           style="fill:#ffffff;fill-opacity:1;stroke:none"
           d="m -140.07813,3266.369 215.942202,-124.6743 215.942198,124.6743 -31.8266,55.1253 -184.115598,-106.2992 -184.115602,106.2992 -31.8266,-55.1253 z"
           id="path3848" />
      </g>
      <g
         id="g3882"
         style="fill:#ffffff;fill-opacity:1">
        <path
           sodipodi:type="arc"
           style="fill:#ffffff;fill-opacity:1;fill-rule:nonzero;stroke:none"
           id="path3850"
           sodipodi:cx="-2183.5"
           sodipodi:cy="3461.8621"
           sodipodi:rx="37.5"
           sodipodi:ry="37.5"
           d="m -2146,3461.8621 c 0,20.7106 -16.7893,37.5 -37.5,37.5 -20.7107,0 -37.5,-16.7894 -37.5,-37.5 0,-20.7107 16.7893,-37.5 37.5,-37.5 20.7107,0 37.5,16.7893 37.5,37.5 z"
           transform="matrix(1.1338583,0,0,1.1338583,2622.5098,-929.75106)" />
        <path
           inkscape:connector-curvature="0"
           style="fill:#ffffff;fill-opacity:1;stroke:none"
           d="m 136.32537,2878.8841 21.26,0 0,64.4943 -21.26,0 0,-64.4943 z"
           id="path3854" />
        <path
           inkscape:connector-curvature="0"
           id="path3858"
           d="m 60.184472,2895.3909 20.7849,-7.4942 43.716498,59.1871 -17.1997,12.4963 -47.301698,-64.1892 z"
           style="fill:#ffffff;fill-opacity:1;stroke:none"
           sodipodi:nodetypes="ccccc" />
        <path
           inkscape:connector-curvature="0"
           style="fill:#ffffff;fill-opacity:1;stroke:none"
           d="m 227.69037,2901.8412 -19.3961,-9.4732 -39.6848,54.6216 17.1997,12.4963 41.8812,-57.6447 z"
           id="path3860"
           sodipodi:nodetypes="ccccc" />
        <path
           inkscape:connector-curvature="0"
           id="path3862"
           d="m -24.164228,2951.5015 18.6774,-16.2855 105.785798,34.3718 -6.569698,20.2195 -117.8935,-38.3058 z"
           style="fill:#ffffff;fill-opacity:1;stroke:none"
           sodipodi:nodetypes="ccccc" />
        <path
           inkscape:connector-curvature="0"
           id="path3865"
           d="m 276.32847,2942.23 13.7999,17.8702 -90.4772,29.3978 -6.5697,-20.2195 83.247,-27.0485 z"
           style="fill:#ffffff;fill-opacity:1;stroke:none"
           sodipodi:nodetypes="ccccc" />
        <path
           inkscape:connector-curvature="0"
           id="path3867"
           d="m 192.93917,3021.9635 6.5697,-20.2194 127.5331,41.4381 4.7181,23.8871 -138.8209,-45.1058 z"
           style="fill:#ffffff;fill-opacity:1;stroke:none"
           sodipodi:nodetypes="ccccc" />
        <path
           inkscape:connector-curvature="0"
           id="path3869"
           d="m 93.940072,3001.7152 6.569598,20.2196 -214.8256,69.8003 10.2862,-25.6963 197.969802,-64.3236 z"
           style="fill:#ffffff;fill-opacity:1;stroke:none"
           sodipodi:nodetypes="ccccc" />
        <path
           inkscape:connector-curvature="0"
           sodipodi:nodetypes="ccccc"
           style="fill:#ffffff;fill-opacity:1;stroke:none"
           d="m 168.29867,3044.1317 17.1997,-12.4963 136.8827,188.4031 -7.952,25.2248 -146.1304,-201.1316 z"
           id="path3871" />
        <path
           inkscape:connector-curvature="0"
           id="path3873"
           d="m 136.09567,3047.5955 21.26,0 0,130.5185 -21.26,-12.2745 0,-118.244 z"
           style="fill:#ffffff;fill-opacity:1;stroke:none"
           sodipodi:nodetypes="ccccc" />
        <path
           inkscape:connector-curvature="0"
           sodipodi:nodetypes="ccccc"
           id="path3876-6"
           d="m 6.264772,3171.248 45.2669,-26.1349 73.448198,-101.0932 -17.1997,-12.4963 L 6.264772,3171.248 z"
           style="fill:#ffffff;fill-opacity:1;stroke:none" />
      </g>
    </g>
  </g>
</svg>
