<?xml version="1.0" encoding="UTF-8" standalone="no"?>
<!-- Created with Inkscape (http://www.inkscape.org/) -->

<svg
   xmlns:dc="http://purl.org/dc/elements/1.1/"
   xmlns:cc="http://creativecommons.org/ns#"
   xmlns:rdf="http://www.w3.org/1999/02/22-rdf-syntax-ns#"
   xmlns:svg="http://www.w3.org/2000/svg"
   xmlns="http://www.w3.org/2000/svg"
   xmlns:sodipodi="http://sodipodi.sourceforge.net/DTD/sodipodi-0.dtd"
   xmlns:inkscape="http://www.inkscape.org/namespaces/inkscape"
   width="50.6875"
   height="50.6875"
   id="svg3822"
   version="1.1"
   inkscape:version="0.48.3.1 r9886"
   sodipodi:docname="yinyang.svg">
  <defs
     id="defs3824" />
  <sodipodi:namedview
     id="base"
     pagecolor="#000000"
     bordercolor="#666666"
     borderopacity="1.0"
     inkscape:pageopacity="1"
     inkscape:pageshadow="2"
     inkscape:zoom="3.959798"
     inkscape:cx="-1.6997877"
     inkscape:cy="50.355739"
     inkscape:document-units="px"
     inkscape:current-layer="layer1"
     showgrid="false"
     fit-margin-top="0"
     fit-margin-left="0"
     fit-margin-right="0"
     fit-margin-bottom="0"
     inkscape:window-width="1600"
     inkscape:window-height="850"
     inkscape:window-x="0"
     inkscape:window-y="0"
     inkscape:window-maximized="1" />
  <metadata
     id="metadata3827">
    <rdf:RDF>
      <cc:Work
         rdf:about="">
        <dc:format>image/svg+xml</dc:format>
        <dc:type
           rdf:resource="http://purl.org/dc/dcmitype/StillImage" />
        <dc:title />
      </cc:Work>
    </rdf:RDF>
  </metadata>
  <g
     inkscape:label="Layer 1"
     inkscape:groupmode="layer"
     id="layer1"
     transform="translate(-140.37054,-967.01843)">
    <g
       transform="translate(-169.56696,946.7372)"
       id="g3818">
      <path
         inkscape:connector-curvature="0"
         id="circle4"
         transform="translate(0,-2.172441e-5)"
         d="m 335.28125,20.28125 c -13.99262,0 -25.34375,11.351127 -25.34375,25.34375 0,13.992623 11.35113,25.34375 25.34375,25.34375 13.99262,0 25.34375,-11.351127 25.34375,-25.34375 0,-13.992623 -11.35113,-25.34375 -25.34375,-25.34375 z m 0,1.28125 a 12.032762,12.032762 0 0 1 0,24.0625 c -6.64551,0 -12.03125,5.385739 -12.03125,12.03125 0,6.230167 4.74491,11.352552 10.8125,11.96875 a 24.065525,24.065525 0 0 1 1.21875,-48.0625 z m 0,32.90625 c 1.76429,0 3.1875,1.423205 3.1875,3.1875 0,1.764295 -1.42321,3.1875 -3.1875,3.1875 -1.76429,0 -3.1875,-1.423205 -3.1875,-3.1875 0,-1.764295 1.42321,-3.1875 3.1875,-3.1875 z"
         style="fill:#ffffff;fill-opacity:1" />
      <circle
         transform="matrix(0.10648462,0,0,0.10648462,310.46699,20.81629)"
         d="m 263,120 c 0,16.56854 -13.43146,30 -30,30 -16.56854,0 -30,-13.43146 -30,-30 0,-16.56854 13.43146,-30 30,-30 16.56854,0 30,13.43146 30,30 z"
         sodipodi:ry="30"
         sodipodi:rx="30"
         sodipodi:cy="120"
         sodipodi:cx="233"
         style="fill:#ffffff;fill-opacity:1"
         id="circle10-5"
         r="30"
         cy="120"
         cx="233" />
    </g>
  </g>
</svg>
