<?xml version="1.0" encoding="UTF-8" standalone="no"?>
<!-- Created with Inkscape (http://www.inkscape.org/) -->

<svg
   xmlns:dc="http://purl.org/dc/elements/1.1/"
   xmlns:cc="http://creativecommons.org/ns#"
   xmlns:rdf="http://www.w3.org/1999/02/22-rdf-syntax-ns#"
   xmlns:svg="http://www.w3.org/2000/svg"
   xmlns="http://www.w3.org/2000/svg"
   xmlns:sodipodi="http://sodipodi.sourceforge.net/DTD/sodipodi-0.dtd"
   xmlns:inkscape="http://www.inkscape.org/namespaces/inkscape"
   width="744.09448"
   height="1052.3622"
   id="svg3408"
   version="1.1"
   inkscape:version="0.48.3.1 r9886"
   sodipodi:docname="matrixgui_icons.svg">
  <defs
     id="defs3410" />
  <sodipodi:namedview
     id="base"
     pagecolor="#000000"
     bordercolor="#666666"
     borderopacity="1.0"
     inkscape:pageopacity="1"
     inkscape:pageshadow="2"
     inkscape:zoom="2.8"
     inkscape:cx="293.29029"
     inkscape:cy="912.33328"
     inkscape:document-units="mm"
     inkscape:current-layer="layer1"
     showgrid="false"
     inkscape:window-width="1600"
     inkscape:window-height="850"
     inkscape:window-x="0"
     inkscape:window-y="0"
     inkscape:window-maximized="1" />
  <metadata
     id="metadata3413">
    <rdf:RDF>
      <cc:Work
         rdf:about="">
        <dc:format>image/svg+xml</dc:format>
        <dc:type
           rdf:resource="http://purl.org/dc/dcmitype/StillImage" />
        <dc:title></dc:title>
      </cc:Work>
    </rdf:RDF>
  </metadata>
  <g
     inkscape:label="Layer 1"
     inkscape:groupmode="layer"
     id="layer1"
     transform="translate(0,2.172441e-5)">
    <g
       style="fill:#ffffff;fill-opacity:1;fill-rule:evenodd"
       id="g3288"
       transform="matrix(0.49030871,0,0,0.49030871,-170.11611,-474.06069)"
       inkscape:export-filename="/mnt/work/projects/volat3/soft/matrixgui/images/icons/kamerton.png"
       inkscape:export-xdpi="90"
       inkscape:export-ydpi="90">
      <path
         style="fill:#ffffff;fill-opacity:1;fill-rule:nonzero"
         d="m 709.384,1206.74 c -1.04042,-0.6483 -2.03478,-1.3392 -2.97836,-2.0714 -6.7952,-5.2718 -10.9982,-12.6078 -10.9982,-20.7588 l -0.0106,0 0,0 0,0 0.0106,0 c 0,-8.1497 4.20301,-15.487 10.9982,-20.7588 0.70149,-0.5432 1.43013,-1.0652 2.18594,-1.5635 l 0.10747,6.1138 c -5.15604,4.2845 -8.31154,9.9861 -8.31272,16.2086 l 0.0106,0 0,0 0,0 -0.0106,0 c 10e-4,6.4516 3.39288,12.3421 8.88903,16.675 l 0.10865,6.1551 z"
         class="fil0"
         id="_45433928"
         inkscape:connector-curvature="0" />
      <path
         style="fill:#ffffff;fill-opacity:1;fill-rule:nonzero"
         d="m 755.763,1161.62 c 0.73219,0.4854 1.43958,0.992 2.11981,1.5199 6.7952,5.2718 10.9982,12.6078 10.9982,20.7588 l 0.0106,0 0,0 0,0 -0.0106,0 c 0,8.1509 -4.20301,15.487 -10.9982,20.7588 -0.94122,0.731 -1.9344,1.4206 -2.97246,2.069 l 0.11691,-6.1634 c 5.48789,-4.3317 8.87368,-10.2188 8.87486,-16.6644 l -0.0106,0 0,0 0,0 0.0106,0 c -10e-4,-6.2 -3.13307,-11.8816 -8.25486,-16.1602 l 0.11574,-6.1185 z"
         class="fil0"
         id="_45411264"
         inkscape:connector-curvature="0" />
      <path
         style="fill:#ffffff;fill-opacity:1;fill-rule:nonzero"
         d="m 711.014,1217.25 c -6.37242,-1.7714 -12.1225,-4.3164 -16.9679,-7.4542 -10.103,-6.5448 -16.3526,-15.6913 -16.3526,-25.8865 l -0.0106,0 0,0 0,0 0.0106,0 c 0,-10.1952 6.2496,-19.3416 16.3538,-25.8865 4.17585,-2.7044 9.02484,-4.9695 14.3651,-6.6771 l 0.0909,5.2139 c -4.34236,1.5045 -8.29737,3.4117 -11.7422,5.6426 -8.70362,5.6378 -14.0876,13.32 -14.0876,21.7071 l 0.009,0 0,0 0,0 -0.009,0 c 0,8.3883 5.38396,16.0692 14.0876,21.7071 3.70583,2.3997 8.00095,4.4239 12.7354,5.9768 0.15353,1.958 0.70267,3.8653 1.51752,5.6568 z"
         class="fil0"
         id="_24520112"
         inkscape:connector-curvature="0" />
      <path
         style="fill:#ffffff;fill-opacity:1;fill-rule:nonzero"
         d="m 755.958,1151.37 c 5.3072,1.7041 10.129,3.9597 14.2848,6.6523 10.103,6.5437 16.3526,15.6901 16.3526,25.8853 l 0.0106,0 0,0 0,0 -0.0106,0 c 0,10.1952 -6.2496,19.3416 -16.3538,25.8865 -4.84427,3.1378 -10.5943,5.6827 -16.9656,7.4541 0.81368,-1.7915 1.36282,-3.6987 1.51634,-5.6567 4.73444,-1.553 9.02956,-3.5759 12.7354,-5.9768 8.70362,-5.6379 14.0876,-13.3188 14.0876,-21.7071 l -0.009,0 0,0 0,0 0.009,0 c 0,-8.3871 -5.38396,-16.0692 -14.0876,-21.7071 -3.42594,-2.219 -7.35497,-4.1156 -11.669,-5.6166 l 0.0992,-5.2139 z"
         class="fil0"
         id="_45498328"
         inkscape:connector-curvature="0" />
      <path
         style="fill:#ffffff;fill-opacity:1;fill-rule:nonzero"
         d="m 718.442,1226.36 c -14.2104,-1.6238 -26.9387,-5.7229 -36.8233,-11.5025 -13.3696,-7.8179 -21.6398,-18.7547 -21.6398,-30.9551 l -0.0106,0 0,0 0,0 0.0106,0 c 0,-12.2004 8.27139,-23.1372 21.6398,-30.9551 7.4589,-4.36 16.5369,-7.7647 26.6482,-9.8704 l 0.002,0.163 0.0862,4.9033 c -9.19253,2.0029 -17.4297,5.1324 -24.2166,9.1004 -11.8497,6.9287 -19.1798,16.3633 -19.1798,26.6588 l 0.009,0 0,0 0,0 -0.009,0 c 0,10.2955 7.33017,19.7302 19.1787,26.6588 7.88286,4.6093 17.7237,8.0872 28.7444,9.9802 0.75935,1.1137 1.60373,2.1505 2.49181,3.0918 0.95775,1.0132 1.99935,1.9308 3.06811,2.7268 z"
         class="fil0"
         id="_45487816"
         inkscape:connector-curvature="0" />
      <path
         style="fill:#ffffff;fill-opacity:1;fill-rule:nonzero"
         d="m 756.114,1143.1 c 10.0747,2.1068 19.1208,5.5044 26.5561,9.8527 13.3696,7.8167 21.6398,18.7535 21.6398,30.9539 l 0.0106,0 0,0 0,0 -0.0106,0 c 0,12.2004 -8.27139,23.1372 -21.6398,30.9551 -9.88457,5.7795 -22.6129,9.8786 -36.8233,11.5025 1.06876,-0.796 2.11036,-1.7136 3.06811,-2.7269 0.88808,-0.9412 1.73246,-1.9781 2.49181,-3.0917 11.0206,-1.8931 20.8603,-5.371 28.7432,-9.9802 11.8497,-6.9287 19.1798,-16.3633 19.1798,-26.6588 l -0.009,0 0,0 0,0 0.009,0 c 0,-10.2955 -7.33017,-19.729 -19.1787,-26.6576 -6.76568,-3.9574 -14.9745,-7.0798 -24.1328,-9.0827 l 0.0933,-4.9222 0.002,-0.1441 z"
         class="fil0"
         id="_45450016"
         inkscape:connector-curvature="0" />
      <path
         style="fill:#ffffff;fill-opacity:1"
         d="m 729.783,1242.36 -3.54286,-17.7131 c -3.54286,0 -11.8095,-7.0857 -11.8095,-14.1714 l -1.18095,-67.3143 13.0826,0 -1.27307,64.9524 c 0,4.7238 4.72381,7.0857 7.08571,7.0857 2.3619,0 7.08571,-2.3619 7.08571,-7.0857 l -1.18095,-64.9524 13.0826,0 -1.27307,67.3143 c 0,7.0857 -8.26667,14.1714 -11.8095,14.1714 l -3.54286,17.7131 -4.72381,0 z"
         class="fil1"
         id="_45485784"
         inkscape:connector-curvature="0" />
    </g>
    <g
       style="fill:#ffffff;fill-opacity:1;fill-rule:evenodd"
       id="g3345"
       transform="matrix(0.37702623,0,0,0.37702623,-158.66434,-322.28078)"
       inkscape:export-filename="/mnt/work/projects/volat3/soft/matrixgui/images/icons/stb.png"
       inkscape:export-xdpi="90"
       inkscape:export-ydpi="90">
      <path
         id="_45397792"
         class="fil0"
         d="m 1083.9118,1093.0907 -6.1705,-9.2988 c 12.576,-8.3411 27.3461,-12.8015 42.4434,-12.8015 14.9851,0 29.6702,4.4049 42.1813,12.6326 l -6.259,9.5161 c -8.4037,-5.6379 -18.1961,-9.3661 -28.7538,-10.5624 l 0,99.9629 -14.7619,0 0,-99.9641 c -10.5282,1.1927 -20.2911,4.9033 -28.6794,10.5152 z"
         style="fill:#ffffff;fill-opacity:1"
         inkscape:connector-curvature="0" />
      <path
         id="_45400560"
         class="fil0"
         d="m 1105.2118,1102.2307 c -18.8551,6.2012 -32.4762,23.9544 -32.4762,44.8833 0,24.8413 19.1869,45.2092 43.5464,47.094 l 0,11.8331 c -30.8854,-1.9084 -55.356,-27.5622 -55.356,-58.9272 0,-27.5079 18.822,-50.631 44.2857,-57.1888 l 0,12.3055 z"
         style="fill:#ffffff;fill-opacity:1"
         inkscape:connector-curvature="0" />
      <path
         id="_45401832"
         class="fil0"
         d="m 1105.2118,1165.5507 c -5.3969,-4.3282 -8.8571,-10.977 -8.8571,-18.4323 0,-7.4553 3.4602,-14.1077 8.8571,-18.4358 l 0,36.8682 z"
         style="fill:#ffffff;fill-opacity:1"
         inkscape:connector-curvature="0" />
      <path
         id="_45402560"
         class="fil0"
         d="m 1134.7418,1089.9207 c 14.2494,3.6704 26.412,12.5252 34.3657,24.4351 l -9.8279,6.5507 c -3.3787,-5.0556 -7.7045,-9.4204 -12.7283,-12.8464 l 0,22.1653 0,10.9793 20.2982,0 11.8827,0 c 0.1925,1.9415 0.2952,3.9125 0.2952,5.9048 0,31.3649 -24.4717,57.0164 -55.356,58.9248 l 0,-11.839 c 3.837,-0.2976 7.5451,-1.0558 11.0702,-2.2167 l 0,-89.7524 0,-12.3055 z m 32.1077,63.0936 -20.2982,0 0,33.1363 c 10.9333,-7.4542 18.5787,-19.3747 20.2982,-33.1363 z"
         style="fill:#ffffff;fill-opacity:1"
         inkscape:connector-curvature="0" />
    </g>
    <g
       id="g4210"
       transform="matrix(1.2446851,0,0,1.2446851,-913.98024,-1487.6303)"
       style="fill:#ffffff;fill-opacity:1"
       inkscape:export-xdpi="90"
       inkscape:export-ydpi="90"
       inkscape:export-filename="/mnt/work/projects/volat3/soft/matrixgui/images/icons/quality.png">
      <polygon
         transform="matrix(0.21435592,0,0,0.21435592,805.35556,1252.536)"
         style="fill:#ffffff;fill-opacity:1;fill-rule:evenodd"
         class="fil0"
         points="104.855,162.652 161.61,230.677 104.855,193.761 50.4501,231.783 "
         id="polygon3359" />
      <path
         style="fill:#ffffff;fill-opacity:1;fill-rule:evenodd"
         inkscape:connector-curvature="0"
         class="fil0"
         d="m 827.83185,1287.4014 c 0,0 -0.0297,0.1188 19.48596,-8.2384 -9.86897,2.7269 -14.72936,2.7856 -19.53048,2.6671 -4.8011,-0.1186 -14.37362,-0.473 -19.3823,-2.3117 19.42682,7.883 19.42682,7.883 19.42682,7.883 z"
         id="path3361" />
      <path
         style="fill:#ffffff;fill-opacity:1;fill-rule:evenodd"
         inkscape:connector-curvature="0"
         class="fil0"
         d="m 806.71546,1278.8424 c 4.29892,-6.1431 14.89492,-13.5809 20.68931,-15.4482 7.19333,2.1154 17.99048,10.2213 21.60836,15.1176 0.10418,7.497 -4.13561,20.3327 -7.74442,25.2361 -7.1357,2.3012 -20.92322,1.9915 -26.53705,-0.1666 -4.37704,-6.0873 -8.16827,-18.6523 -8.01635,-24.7388 z m 1.63049,0.5871 c 4.11433,-5.1561 10.78513,-10.6628 19.14647,-14.4025 6.19898,2.2556 13.81035,7.3488 20.02157,14.0809 -0.32325,6.5886 -2.65038,15.1961 -7.24673,23.1194 -6.393,1.6257 -15.5267,2.1871 -24.45051,0.12 -3.5065,-5.5873 -6.70417,-13.79 -7.47088,-22.9179 z"
         id="path3363" />
      <path
         style="fill:#ffffff;fill-opacity:1;fill-rule:evenodd"
         inkscape:connector-curvature="0"
         class="fil0"
         d="m 826.6474,1271.2454 0,1.7068 c -0.40768,-0.3567 -0.76709,-0.4304 -1.43425,-0.4304 -0.66716,0 -1.76788,0.9647 -1.76788,2.0334 0,1.0686 0.90437,2.0037 1.88275,2.0185 0.97839,0.015 1.34901,-0.2042 1.59736,-0.5381 0.004,1.6216 0,0 0.004,1.6216 -0.53379,0.2369 -0.80084,0.2968 -1.72364,0.282 -0.9228,-0.015 -3.34639,-0.8386 -3.40573,-3.2801 -0.0593,-2.4415 2.01628,-3.4137 3.33559,-3.4582 1.31932,-0.045 1.3781,0.025 1.51213,0.044 z"
         id="path3365" />
      <path
         style="fill:#ffffff;fill-opacity:1;fill-rule:evenodd"
         inkscape:connector-curvature="0"
         class="fil0"
         d="m 837.56575,1273.8873 c 0.84504,0.2227 2.02978,0.8091 1.59247,1.8184 -0.43728,1.0093 -1.42424,0.8361 -2.3939,0.4388 0.19676,-0.7562 0.46391,-1.5234 0.80143,-2.2572 z m -1.74196,5.306 -1.48249,-0.6604 1.99388,-6.2113 c 1.06181,0.2966 1.95546,0.6295 2.60995,0.8896 2.31526,0.9202 1.89493,2.5844 1.59509,3.3167 -0.4222,1.0313 -2.25374,1.5671 -4.1068,0.632 -0.5485,1.1429 -0.60963,2.0334 -0.60963,2.0334 z"
         id="path3367" />
      <path
         style="fill:#ffffff;fill-opacity:1;fill-rule:evenodd"
         inkscape:connector-curvature="0"
         class="fil0"
         d="m 833.87304,1271.8182 -0.44635,1.6474 c -0.30018,-0.451 -0.62785,-0.6161 -1.27177,-0.7905 -0.64395,-0.1745 -1.95864,0.4688 -2.23809,1.5003 -0.27946,1.0314 0.34888,2.1704 1.28935,2.4406 0.94046,0.2701 1.35545,0.1557 1.68248,-0.1016 -0.42051,1.5661 0,0 -0.42051,1.5661 -0.57717,0.089 -0.85058,0.077 -1.73741,-0.1786 -0.88682,-0.2555 -3.01063,-1.6846 -2.42943,-4.0566 0.58123,-2.3721 2.83882,-2.7676 4.12389,-2.4656 1.28506,0.302 1.32347,0.385 1.44784,0.4385 z"
         id="path3369" />
      <path
         style="fill:#ffffff;fill-opacity:1;fill-rule:evenodd"
         inkscape:connector-curvature="0"
         class="fil0"
         d="m 819.48234,1272.6506 0.41806,1.6549 c -0.48262,-0.2461 -0.84915,-0.2295 -1.49599,-0.066 -0.64682,0.1634 -1.47772,1.3683 -1.216,2.4044 0.26175,1.036 1.36759,1.7211 2.31981,1.4959 0.95221,-0.2253 1.2579,-0.5284 1.41691,-0.913 0.40074,1.5713 0,0 0.40074,1.5713 -0.45952,0.3605 -0.70377,0.4839 -1.60208,0.6956 -0.8983,0.2117 -3.44988,0.01 -4.1054,-2.3461 -0.6555,-2.3526 1.11876,-3.8034 2.38698,-4.1698 1.26821,-0.3664 1.34236,-0.3129 1.47697,-0.3272 z"
         id="path3371" />
    </g>
    <g
       style="fill:#ffffff;fill-opacity:1;fill-rule:evenodd;stroke:none"
       id="g3411"
       transform="matrix(0.02818064,0,0,0.02818064,83.33735,13.492628)"
       inkscape:export-filename="/mnt/work/projects/volat3/soft/matrixgui/images/icons/mosfet.png"
       inkscape:export-xdpi="90"
       inkscape:export-ydpi="90">
      <path
         transform="translate(0,-0.285)"
         id="circle10"
         d="m 1224.9688,330.1875 c -466.73922,0 -845.0938,378.35458 -845.0938,845.0937 0,466.7392 378.35458,845.125 845.0938,845.125 466.7391,0 845.0937,-378.3858 845.0937,-845.125 0,-466.73912 -378.3546,-845.0937 -845.0937,-845.0937 z m 0,80.09375 c 422.4917,0 765,342.50823 765,764.99995 0,422.4918 -342.5083,765 -765,765 -422.49182,0 -765.00005,-342.5082 -765.00005,-765 0,-422.49172 342.50823,-764.99995 765.00005,-764.99995 z"
         style="fill:#ffffff;fill-opacity:1;stroke:none"
         inkscape:connector-curvature="0" />
      <path
         style="fill:#ffffff;fill-opacity:1;stroke:none"
         d="m 111.125,20.9375 0,10.75 -15.78125,0 0,-2.5625 -1.71875,0 0,6.84375 1.71875,0 0,-2.59375 15.78125,0 0,16.46875 -6.84375,0 0,-7.6875 0,-1.6875 -4.21875,0 0,-1.90625 -4.71875,2.75 4.71875,2.84375 0,-2 2.53125,0 0,7.6875 -7.25,0 0,-2.59375 -1.71875,0 0,6.84375 1.71875,0 0,-2.5625 15.78125,0 0,11 1.6875,0 0,-41.59375 -1.6875,0 z"
         transform="matrix(44.16809,0,0,44.16809,-3208.4765,-636.33783)"
         id="polygon14"
         inkscape:connector-curvature="0" />
      <path
         style="fill:#ffffff;fill-opacity:1;stroke:none"
         d="m 88.0625,31.71875 0,17.375 -8.21875,0 0,1.71875 9.90625,0 0,-1.71875 0,-17.375 -1.6875,0 z"
         transform="matrix(44.16809,0,0,44.16809,-3208.4765,-636.33783)"
         id="rect16"
         inkscape:connector-curvature="0" />
      <rect
         class="fil0 str0"
         x="927.45099"
         y="1043.55"
         width="74.625397"
         height="301.48199"
         id="rect20"
         style="fill:#ffffff;fill-opacity:1;stroke:none" />
      <path
         id="polygon36"
         d="m 1625.545,1054.031 208.49,0 31.08,-31.07 39.27,39.41 -67.03,66.28 -207.67,0 -31.4,32.16 -40.08,-40.22 z"
         style="fill:#ffffff;fill-opacity:1;stroke:none"
         inkscape:connector-curvature="0" />
      <polygon
         class="fil0 str0"
         points="1553.4,1369.28 1736.66,1066.81 1921.69,1369.28 "
         id="polygon38"
         style="fill:#ffffff;fill-opacity:1;stroke:none" />
    </g>
    <path
       d="m 262.5709,56.581387 c -10.13149,-1.063459 -18.04868,-9.707673 -18.04868,-20.115232 0,-8.137129 4.82688,-15.146823 11.77379,-18.321392 l 0,0.628317 c -5.45806,2.981892 -9.16011,8.774283 -9.16011,15.431855 0,7.609383 6.73435,16.192109 15.43564,17.423476 0,-1.772307 0,-6.007597 0,-7.19179 -0.41229,-1.425787 -2.85118,-1.465617 -2.85118,-1.465617 v -0.445971 h 9.91046 v 0.445971 c 0,0 -2.43721,0.03983 -2.85124,1.465617 0,1.184193 0,5.421101 0,7.19179 8.54015,-1.052008 15.50004,-8.439338 15.50004,-17.423476 0,-6.704994 -3.73782,-12.462783 -9.23829,-15.431855 v -0.628317 c 6.93029,3.181291 11.74348,10.203182 11.74348,18.328238 0,10.976504 -7.87843,19.111767 -18.00587,20.108386 v 0.01494 l -1.6e-4,6.387973 -2.2135,11.040362 -1.99769,-11.040362 v -6.394072 z"
       id="path12"
       inkscape:connector-curvature="0"
       inkscape:export-filename="/mnt/work/projects/volat3/soft/matrixgui/images/icons/q1.png"
       inkscape:export-xdpi="90"
       inkscape:export-ydpi="90"
       style="fill:#ffffff;fill-opacity:1">
      <title
         id="title3031">q1</title>
    </path>
    <g
       id="g3416"
       transform="matrix(1.2446851,0,0,1.2446851,-1191.8168,-1547.3308)"
       inkscape:export-filename="/mnt/work/projects/volat3/soft/matrixgui/images/icons/chibi.png"
       inkscape:export-xdpi="90"
       inkscape:export-ydpi="90"
       style="stroke:#ffffff;stroke-width:0.35433072;stroke-miterlimit:4;stroke-opacity:1;stroke-dasharray:none">
      <path
         sodipodi:nodetypes="ccsssssscscssccssssssssscsscccccssssccccccscccsccssssssssssssssccsssssccssssssssssssssssssccssssscsccsssc"
         inkscape:connector-curvature="0"
         inkscape:export-ydpi="600"
         inkscape:export-xdpi="600"
         inkscape:export-filename="c:\temp\path3827.png"
         d="m 998.82381,1277.7624 c -1.8536,-1.0505 -0.30793,-4.962 1.89819,-4.1195 m 8.2795,-1.0703 c -2.7971,-0.6293 -0.8863,2.4446 0.2424,3.0089 0.4945,0.2473 1.2419,-0.094 1.283,-0.9003 0.04,-0.7786 -0.5756,-1.8949 -1.5254,-2.1086 z m -5.0037,0.3305 c -0.353,-0.473 -0.864,-0.2967 -1.4363,-0.097 -1.2508,0.4376 -1.9763,2.6209 -1.1639,3.0258 1.3757,0.5142 3.5534,-1.6516 2.6002,-2.9293 z m -0.5496,16.5516 c 0.6934,0.064 1.6858,-0.3283 2.2617,-0.04 0.5983,0.2991 3.3276,3.0448 3.6955,3.4127 0.4304,0.4303 0.4957,0.4809 0.9747,0.7595 m 3.6726,0.9964 c 0.7629,0.2162 0.7605,-0.1446 1.6532,0.7482 0.8249,0.8249 -1.5153,1.6156 -1.8903,2.278 -1.3548,2.3935 1.6091,3.0937 2.274,1.5386 0.4451,-1.0409 0.219,-2.0988 1.1511,-1.9992 1.0167,0.1086 0.1442,1.3944 0.5514,2.565 0.6539,1.8797 3.6918,0.9861 2.6594,-1.111 -0.427,-0.8674 -1.8138,-1.722 -0.9895,-2.4031 0.7749,-0.6403 0.8245,0.4512 2.2819,0.6866 2.6612,0.4299 2.6599,-2.0617 0.9434,-2.6456 -1.1188,-0.3805 -2.2991,0.7948 -2.5791,-0.1412 -0.2857,-0.9464 0.7801,-0.5743 1.4646,-1.6572 1.1818,-1.8696 -1.683,-3.5528 -2.858,-1.4123 -1.2862,2.3433 -0.9472,2.7455 -1.3126,2.8272 -0.921,-0.1356 -0.4689,-0.8243 -0.7633,-1.0414 m -2.6968,-1.5833 c -2.7319,-2.0224 -5.0666,-2.6606 -5.9099,-5.1903 m -7.916,-1.9386 c 0.8766,-1.7609 0.2946,-3.738 -0.24782,-4.5848 -1.08637,-1.6961 -1.47523,-2.4375 0.42622,-5.1936 0.5152,-0.7467 0.7805,-1.7091 2.0124,-2.325 1.7327,-0.8663 3.8197,0.6974 4.9175,0.1486 0.3805,-0.1904 0.9939,-1.0353 1.3307,-1.2598 m -2.8753,7.0364 c 0.9657,3.3197 2.6262,2.0033 3.1177,-0.1281 m -8.4505,0.6242 c 3.2319,-0.4467 8.4937,-1.3048 11.9259,0.028 m -11.9438,11.0859 c 3.9416,-3.2791 3.6777,-6.8881 1.0875,-9.2313 -0.5323,-0.4815 -0.064,-1.0849 -1.0533,-1.897 m 7.79,-14.9011 c -2.6914,-0.21 -5.7627,0.5672 -7.7949,2.1002 -2.23683,1.6777 -3.83519,3.1858 -4.76571,5.9774 -1.03427,3.1028 -0.87171,10.3452 4.84651,9.6123 m -11.17337,7.6088 c 2.63202,2.7386 3.401,1.0653 3.89001,0.3916 0.57979,-0.7987 3.51084,-0.8031 2.60659,1.3613 -0.34331,0.8217 -2.27609,0.5822 -2.05656,1.4855 0.26315,1.0828 1.61495,-0.063 2.61744,0.015 2.26865,0.1787 1.24642,3.2426 -0.45204,2.7696 -1.73849,-0.4842 -2.17461,-1.7493 -2.96294,-0.8657 -0.82663,0.9265 1.09894,0.8649 1.2423,2.7736 0.16743,2.2295 -2.42377,1.9657 -2.98184,0.6194 -0.31066,-0.7495 0.58688,-2.5469 -0.53282,-2.5469 -1.07702,0 -0.48847,1.3978 -0.77257,2.0316 -0.82798,1.8469 -3.76428,0.071 -2.16222,-1.6196 1.50629,-1.5892 2.78855,-0.5671 1.2679,-3.1604 -1.16931,-1.9942 -4.68799,-3.1967 -5.41196,-4.6446 -1.02763,-2.0553 0.48304,-5.8383 3.79645,-4.0388 1.25268,0.6803 3.27248,1.6081 3.99231,1.848 m 17.09812,-14.3348 c 1.8212,-0.076 2.536,1.9043 3.1423,3.5611 0.5406,1.4775 1.0684,2.2083 0.6462,3.8974 -0.5896,2.3583 -1.938,4.3702 -2.8272,5.6745 -1.7777,2.6077 -4.1613,5.2147 -7.5929,5.6745 -1.92476,0.2579 -5.64751,-0.9895 -8.07755,-0.9895 -3.22992,0 -5.78861,0.8087 -6.70438,-1.9386 m 0.84653,-19.7236 c 1.51262,-0.6895 0.79581,-1.7877 1.62895,-2.2252 0.72795,-0.3822 1.71521,-0.4092 2.46163,-0.7492 0.9925,-0.452 0.31014,-2.9027 -0.92283,-2.903 -1.53006,-3e-4 -1.42368,1.9549 -2.42243,1.2959 -0.78811,-0.5201 0.41899,-1.187 0.55494,-2.3824 0.26175,-2.3017 -2.77792,-1.9565 -2.69147,-0.4139 0.0478,0.8529 1.21073,2.2369 0.21668,2.4732 -1.19367,0.2837 -0.31016,-2.1465 -2.19802,-2.6316 -1.32798,-0.3412 -2.46023,1.5075 -1.21448,2.5884 0.62952,0.5462 1.97905,0.4654 1.8688,1.1781 -0.20342,1.3151 -1.50535,-0.184 -2.57824,-0.039 -1.90505,0.2567 -1.51533,2.6639 0.0767,2.815 1.52823,0.1451 2.95284,-0.5985 3.08083,-0.042 0.2167,0.9429 -1.70263,0.481 -1.99573,1.3259 -0.43645,1.258 0.34193,2.1485 0.96035,3.0172 1.80953,2.5421 2.97479,0.9889 3.78175,1.7958 0.77957,0.7796 -1.00139,3.7789 -1.21569,4.814 -0.31284,1.5109 -0.1562,3.6671 0.32716,5.1214 0.21286,0.6405 0.22081,1.2272 0.65026,1.6302 m 20.28534,-12.8673 c -3.1084,3.6915 -5.2169,-2.3472 -2.8419,-3.3024 1.5285,-0.6149 7.0694,-0.634 10.2989,5.3311 2.0388,3.7658 2.2907,7.0335 1.9386,9.7739 -0.3326,2.5887 -0.4209,4.0038 -1.8982,6.2197 -0.6155,0.9233 -1.6402,2.0581 -2.504,2.706 -3.8801,2.91 -5.6027,3.2228 -12.9241,3.8772 1.2664,1.4659 3.1186,1.1836 4.5805,1.2777 2.4029,0.1548 5.6776,-0.5101 7.455,-1.3988 10.7103,-5.5636 13.0278,-15.292 9.3072,-24.936 -2.427,-5.9343 -7.548,-9.2989 -12.9576,-10.0676 -5.4096,-0.7687 -8.2518,0.2105 -12.20356,2.8451 -1.25911,0.8393 -2.53902,2.5451 -3.90257,3.2269 -1.36319,0.6816 -3.28362,-0.014 -5.12232,0.6601"
         style="fill:none;stroke:#ffffff;stroke-width:1.0629921;stroke-linecap:round;stroke-linejoin:round;stroke-miterlimit:4;stroke-opacity:1;stroke-dasharray:none"
         id="path3819" />
      <g
         inkscape:export-ydpi="600"
         inkscape:export-xdpi="600"
         inkscape:export-filename="c:\temp\path3827.png"
         transform="matrix(0.39691475,0,0,0.39691475,973.65904,1308.8446)"
         id="g3767"
         style="stroke:#ffffff;stroke-width:0.89271235;stroke-miterlimit:4;stroke-opacity:1;stroke-dasharray:none" />
    </g>
    <g
       transform="matrix(0.08954707,0,0,0.08954707,43.781157,-172.89159)"
       id="g3895"
       inkscape:export-filename="/mnt/work/projects/volat3/soft/matrixgui/images/icons/sun.png"
       inkscape:export-xdpi="90"
       inkscape:export-ydpi="90"
       style="fill:#ffffff;fill-opacity:1">
      <g
         id="g3878"
         style="fill:#ffffff;fill-opacity:1">
        <rect
           style="fill:#ffffff;fill-opacity:1;stroke:none"
           id="rect3845"
           width="141.73228"
           height="141.73228"
           x="4.9980898"
           y="3321.4944" />
        <path
           inkscape:connector-curvature="0"
           style="fill:#ffffff;fill-opacity:1;stroke:none"
           d="m -140.07813,3266.369 215.942202,-124.6743 215.942198,124.6743 -31.8266,55.1253 -184.115598,-106.2992 -184.115602,106.2992 -31.8266,-55.1253 z"
           id="path3848" />
      </g>
      <g
         id="g3882"
         style="fill:#ffffff;fill-opacity:1">
        <path
           sodipodi:type="arc"
           style="fill:#ffffff;fill-opacity:1;fill-rule:nonzero;stroke:none"
           id="path3850"
           sodipodi:cx="-2183.5"
           sodipodi:cy="3461.8621"
           sodipodi:rx="37.5"
           sodipodi:ry="37.5"
           d="m -2146,3461.8621 c 0,20.7106 -16.7893,37.5 -37.5,37.5 -20.7107,0 -37.5,-16.7894 -37.5,-37.5 0,-20.7107 16.7893,-37.5 37.5,-37.5 20.7107,0 37.5,16.7893 37.5,37.5 z"
           transform="matrix(1.1338583,0,0,1.1338583,2622.5098,-929.75106)" />
        <path
           inkscape:connector-curvature="0"
           style="fill:#ffffff;fill-opacity:1;stroke:none"
           d="m 136.32537,2878.8841 21.26,0 0,64.4943 -21.26,0 0,-64.4943 z"
           id="path3854" />
        <path
           inkscape:connector-curvature="0"
           id="path3858"
           d="m 60.184472,2895.3909 20.7849,-7.4942 43.716498,59.1871 -17.1997,12.4963 -47.301698,-64.1892 z"
           style="fill:#ffffff;fill-opacity:1;stroke:none"
           sodipodi:nodetypes="ccccc" />
        <path
           inkscape:connector-curvature="0"
           style="fill:#ffffff;fill-opacity:1;stroke:none"
           d="m 227.69037,2901.8412 -19.3961,-9.4732 -39.6848,54.6216 17.1997,12.4963 41.8812,-57.6447 z"
           id="path3860"
           sodipodi:nodetypes="ccccc" />
        <path
           inkscape:connector-curvature="0"
           id="path3862"
           d="m -24.164228,2951.5015 18.6774,-16.2855 105.785798,34.3718 -6.569698,20.2195 -117.8935,-38.3058 z"
           style="fill:#ffffff;fill-opacity:1;stroke:none"
           sodipodi:nodetypes="ccccc" />
        <path
           inkscape:connector-curvature="0"
           id="path3865"
           d="m 276.32847,2942.23 13.7999,17.8702 -90.4772,29.3978 -6.5697,-20.2195 83.247,-27.0485 z"
           style="fill:#ffffff;fill-opacity:1;stroke:none"
           sodipodi:nodetypes="ccccc" />
        <path
           inkscape:connector-curvature="0"
           id="path3867"
           d="m 192.93917,3021.9635 6.5697,-20.2194 127.5331,41.4381 4.7181,23.8871 -138.8209,-45.1058 z"
           style="fill:#ffffff;fill-opacity:1;stroke:none"
           sodipodi:nodetypes="ccccc" />
        <path
           inkscape:connector-curvature="0"
           id="path3869"
           d="m 93.940072,3001.7152 6.569598,20.2196 -214.8256,69.8003 10.2862,-25.6963 197.969802,-64.3236 z"
           style="fill:#ffffff;fill-opacity:1;stroke:none"
           sodipodi:nodetypes="ccccc" />
        <path
           inkscape:connector-curvature="0"
           sodipodi:nodetypes="ccccc"
           style="fill:#ffffff;fill-opacity:1;stroke:none"
           d="m 168.29867,3044.1317 17.1997,-12.4963 136.8827,188.4031 -7.952,25.2248 -146.1304,-201.1316 z"
           id="path3871" />
        <path
           inkscape:connector-curvature="0"
           id="path3873"
           d="m 136.09567,3047.5955 21.26,0 0,130.5185 -21.26,-12.2745 0,-118.244 z"
           style="fill:#ffffff;fill-opacity:1;stroke:none"
           sodipodi:nodetypes="ccccc" />
        <path
           inkscape:connector-curvature="0"
           sodipodi:nodetypes="ccccc"
           id="path3876-6"
           d="m 6.264772,3171.248 45.2669,-26.1349 73.448198,-101.0932 -17.1997,-12.4963 L 6.264772,3171.248 z"
           style="fill:#ffffff;fill-opacity:1;stroke:none" />
      </g>
    </g>
    <path
       style="fill:#ffffff;fill-opacity:1;stroke:none"
       d="m 179.60783,22.144808 c -2.4207,0 -3.89744,1.461633 -3.89744,3.897482 l 0,40.923132 -3.89745,0 0,3.897482 30.20524,0 0,-3.897482 -3.89749,0 0,-22.410307 c 2.36154,0 3.9225,0.521647 3.92786,2.923143 0.0274,1.152703 -0.0249,0.849373 -0.0299,2.923018 0,2.07377 -0.0859,5.031142 0.18272,7.82546 0.54717,2.671592 2.9056,4.884891 5.57221,5.450227 3.44479,0.842777 7.38036,-1.294472 8.343,-4.749967 0.69205,-1.813133 0.16355,-3.734678 -0.36544,-5.511217 -0.83643,-3.369611 -1.77592,-6.702131 -2.5577,-10.078589 l 0,-4.597742 c 0.76448,-0.01992 1.76608,0 1.76608,0 0,0 -0.45829,-4.406559 -1.12669,-6.120242 -0.45269,-2.022488 -1.36368,-3.893748 -2.49684,-5.602576 -0.74282,-1.120217 -1.68879,-2.116338 -2.74042,-2.953389 -0.99786,-0.794607 -2.07813,-1.289494 -3.31883,-1.918433 -0.54442,0.786516 -1.30928,1.705218 -1.91831,2.405603 1.39654,1.197636 2.62168,2.297315 3.59291,3.714638 0.91609,1.336792 1.57565,2.862402 2.04016,4.415147 0.42731,1.428774 0.55252,2.666613 0.6394,4.415023 0.0448,2.344613 -0.0934,4.703043 0.061,7.033715 1.03869,4.125136 2.18641,8.258362 3.16673,12.392584 0.35212,2.271923 -1.95329,4.304743 -4.17157,3.806122 -1.94917,-0.287398 -2.88542,-2.498332 -2.92301,-4.201932 -0.0747,-3.417159 -0.0697,-7.214818 -0.0921,-10.900704 -0.51007,-2.61695 -2.67956,-4.567247 -5.60258,-4.567247 l -1.9488,0 c -0.0324,-5.046079 0,-14.620321 0,-14.645837 0,-2.332291 -1.40488,-3.867112 -3.89736,-3.867112 z m -0.0161,3.875949 14.61537,0 0,14.615466 -14.61537,0 z"
       id="path3281-5"
       inkscape:connector-curvature="0"
       sodipodi:nodetypes="sscccccccccccccccccccccssccccccsccssccccc"
       inkscape:export-filename="/mnt/work/projects/volat3/soft/matrixgui/images/icons/fuel.png"
       inkscape:export-xdpi="90"
       inkscape:export-ydpi="90" />
    <text
       xml:space="preserve"
       style="font-size:19.36655045px;font-style:normal;font-variant:normal;font-weight:normal;font-stretch:normal;line-height:125%;letter-spacing:0px;word-spacing:0px;fill:#000000;fill-opacity:1;stroke:none;font-family:Sans;-inkscape-font-specification:Terminal"
       x="302.30518"
       y="115.85657"
       id="text3032"
       sodipodi:linespacing="125%"
       inkscape:export-filename="/mnt/work/projects/volat3/soft/matrixgui/images/icons/empty.png"
       inkscape:export-xdpi="90"
       inkscape:export-ydpi="90"><tspan
         sodipodi:role="line"
         id="tspan3034"
         x="302.30518"
         y="115.85657"
         style="font-weight:bold;fill:#ffffff;fill-opacity:1">Empty</tspan></text>
  </g>
</svg>
