<?xml version="1.0" encoding="UTF-8" standalone="no"?>
<!-- Created with Inkscape (http://www.inkscape.org/) -->

<svg
   xmlns:dc="http://purl.org/dc/elements/1.1/"
   xmlns:cc="http://creativecommons.org/ns#"
   xmlns:rdf="http://www.w3.org/1999/02/22-rdf-syntax-ns#"
   xmlns:svg="http://www.w3.org/2000/svg"
   xmlns="http://www.w3.org/2000/svg"
   xmlns:sodipodi="http://sodipodi.sourceforge.net/DTD/sodipodi-0.dtd"
   xmlns:inkscape="http://www.inkscape.org/namespaces/inkscape"
   width="70"
   height="70"
   id="svg2"
   version="1.1"
   inkscape:version="0.48.0 r9654"
   sodipodi:docname="02.svg"
   inkscape:export-filename=".\02.png"
   inkscape:export-xdpi="90"
   inkscape:export-ydpi="90">
  <defs
     id="defs4">
    <clipPath
       id="clipId0">
      <path
         inkscape:connector-curvature="0"
         d="M 0,600 1000,600 1000,0 0,0 z"
         id="path7" />
    </clipPath>
    <clipPath
       id="clipId0-1">
      <path
         inkscape:connector-curvature="0"
         d="M 0,600 1000,600 1000,0 0,0 z"
         id="path7-7" />
    </clipPath>
  </defs>
  <sodipodi:namedview
     id="base"
     pagecolor="#ffffff"
     bordercolor="#666666"
     borderopacity="1.0"
     inkscape:pageopacity="0.0"
     inkscape:pageshadow="2"
     inkscape:zoom="5.6568543"
     inkscape:cx="64.386824"
     inkscape:cy="45.08652"
     inkscape:document-units="px"
     inkscape:current-layer="layer1"
     showgrid="true"
     units="mm"
     inkscape:window-width="1280"
     inkscape:window-height="906"
     inkscape:window-x="-4"
     inkscape:window-y="-4"
     inkscape:window-maximized="1"
     inkscape:snap-global="false">
    <inkscape:grid
       type="xygrid"
       id="grid4230"
       empspacing="5"
       visible="true"
       enabled="true"
       snapvisiblegridlinesonly="true" />
  </sodipodi:namedview>
  <metadata
     id="metadata7">
    <rdf:RDF>
      <cc:Work
         rdf:about="">
        <dc:format>image/svg+xml</dc:format>
        <dc:type
           rdf:resource="http://purl.org/dc/dcmitype/StillImage" />
        <dc:title />
      </cc:Work>
    </rdf:RDF>
  </metadata>
  <g
     inkscape:label="Layer 1"
     inkscape:groupmode="layer"
     id="layer1"
     transform="translate(0,-982.36219)">
    <g
       id="g3828"
       transform="translate(-2.0105869,3.0137294)">
      <path
         sodipodi:type="arc"
         style="fill:#ff0000;fill-opacity:1;stroke:none"
         id="path69869"
         sodipodi:cx="1316.7188"
         sodipodi:cy="1305.5809"
         sodipodi:rx="1.15625"
         sodipodi:ry="1.15625"
         d="m 1317.875,1305.5809 c 0,0.6386 -0.5177,1.1563 -1.1562,1.1563 -0.6386,0 -1.1563,-0.5177 -1.1563,-1.1563 0,-0.6385 0.5177,-1.1562 1.1563,-1.1562 0.6385,0 1.1562,0.5177 1.1562,1.1562 z"
         transform="matrix(4.3243243,0,0,4.3243243,-5656.8993,-4623.3726)" />
      <path
         style="fill:#00ff00;fill-opacity:1;stroke:#ff0000;stroke-width:4;stroke-linecap:round;stroke-miterlimit:4;stroke-opacity:1;stroke-dasharray:none"
         d="m 37.034778,982.14341 0,40.20099"
         id="path69871"
         inkscape:connector-curvature="0" />
      <path
         inkscape:connector-curvature="0"
         id="path69873"
         d="m 38.422093,987.36366 8.608994,0"
         style="fill:#00ff00;fill-opacity:1;stroke:#ff0000;stroke-width:3.99999976;stroke-miterlimit:4;stroke-opacity:1;stroke-dasharray:none" />
      <path
         style="fill:#00ff00;fill-opacity:1;stroke:#ff0000;stroke-width:4;stroke-miterlimit:4;stroke-opacity:1;stroke-dasharray:none"
         d="m 38.291271,995.36572 8.735728,0"
         id="path69875"
         inkscape:connector-curvature="0" />
      <path
         inkscape:connector-curvature="0"
         id="path69877"
         d="m 38.308534,1003.3681 8.720856,0"
         style="fill:#00ff00;fill-opacity:1;stroke:#ff0000;stroke-width:4;stroke-miterlimit:4;stroke-opacity:1;stroke-dasharray:none" />
    </g>
    <g
       id="g69928"
       transform="matrix(3.4841614,0,0,3.4841614,-972.57602,-3218.6788)">
      <g
         transform="translate(196.30403,931.74339)"
         id="g69892"
         clip-path="url(#clipId0-1)"
         style="fill:none;stroke:#ff0000;stroke-width:0.25">
        <polyline
           id="polyline69894"
           points="83.4363,289.223 83.4363,289.223 "
           style="stroke-width:0.25" />
      </g>
      <path
         sodipodi:open="true"
         sodipodi:end="2.4718517"
         sodipodi:start="0.69515615"
         sodipodi:type="arc"
         style="fill:none;stroke:#ff0000;stroke-width:0.84928501;stroke-linecap:butt;stroke-linejoin:miter;stroke-miterlimit:4;stroke-opacity:1;stroke-dasharray:none"
         id="path69912"
         sodipodi:cx="625.09375"
         sodipodi:cy="929.20593"
         sodipodi:rx="8.09375"
         sodipodi:ry="8.09375"
         d="m 631.30938,934.39002 c -2.8631,3.4328 -7.96693,3.89463 -11.39972,1.03154 -0.42697,-0.35612 -0.81612,-0.75528 -1.16127,-1.19117"
         transform="matrix(1.460237,0,0,1.4602372,-623.51044,-143.53047)" />
      <path
         sodipodi:nodetypes="cscccssssccc"
         inkscape:connector-curvature="0"
         style="fill:none;stroke:#ff0000;stroke-width:0.99921268;stroke-miterlimit:4;stroke-opacity:1;stroke-dasharray:none"
         d="m 280.17396,1220.6979 c 0.48387,0.5705 0.93649,0.8516 1.48287,1.3273 0.54637,0.4758 1.09274,0.8231 1.63911,0.7063 0.54637,-0.1167 1.09275,-0.6736 1.63913,-1.1303 0.54636,-0.4566 1.09273,-0.713 1.63911,-0.5215 0.54638,0.1914 1.09274,0.7902 1.63911,1.2156 0.54639,0.4253 1.09275,0.5838 1.63912,0.3228 0.54638,-0.261 1.09276,-0.8857 1.63912,-1.2684 0.54637,-0.3827 1.09275,-0.439 1.63912,-0.1154 0.54637,0.3235 1.09275,0.9574 1.63912,1.2872 0.54636,0.3298 1.09275,0.2825 1.63912,-0.095 0.54637,-0.3775 1.31537,-0.8787 1.83822,-1.3967"
         title="sin(x)"
         id="path69914" />
    </g>
  </g>
</svg>
