<?xml version="1.0" encoding="UTF-8" standalone="no"?>
<!-- Created with Inkscape (http://www.inkscape.org/) -->

<svg
   xmlns:dc="http://purl.org/dc/elements/1.1/"
   xmlns:cc="http://creativecommons.org/ns#"
   xmlns:rdf="http://www.w3.org/1999/02/22-rdf-syntax-ns#"
   xmlns:svg="http://www.w3.org/2000/svg"
   xmlns="http://www.w3.org/2000/svg"
   xmlns:sodipodi="http://sodipodi.sourceforge.net/DTD/sodipodi-0.dtd"
   xmlns:inkscape="http://www.inkscape.org/namespaces/inkscape"
   width="70"
   height="70"
   id="svg2"
   version="1.1"
   inkscape:version="0.48.0 r9654"
   sodipodi:docname="13.svg"
   inkscape:export-filename=".\13.png"
   inkscape:export-xdpi="90"
   inkscape:export-ydpi="90">
  <defs
     id="defs4">
    <clipPath
       id="clipId0">
      <path
         inkscape:connector-curvature="0"
         d="M 0,600 1000,600 1000,0 0,0 z"
         id="path7" />
    </clipPath>
    <clipPath
       id="clipId0-1">
      <path
         inkscape:connector-curvature="0"
         d="M 0,600 1000,600 1000,0 0,0 z"
         id="path7-7" />
    </clipPath>
    <clipPath
       id="clipId0-1-9">
      <path
         id="path7-7-4"
         d="M 0,600 1000,600 1000,0 0,0 z"
         inkscape:connector-curvature="0" />
    </clipPath>
    <clipPath
       id="clipId0-4">
      <path
         id="path7-0"
         d="M 0,600 1000,600 1000,0 0,0 z"
         inkscape:connector-curvature="0" />
    </clipPath>
  </defs>
  <sodipodi:namedview
     id="base"
     pagecolor="#000000"
     bordercolor="#666666"
     borderopacity="1.0"
     inkscape:pageopacity="0"
     inkscape:pageshadow="2"
     inkscape:zoom="8.0000004"
     inkscape:cx="60.767553"
     inkscape:cy="19.596178"
     inkscape:document-units="px"
     inkscape:current-layer="layer1"
     showgrid="true"
     units="mm"
     inkscape:window-width="1280"
     inkscape:window-height="906"
     inkscape:window-x="-4"
     inkscape:window-y="-4"
     inkscape:window-maximized="1"
     inkscape:snap-global="false"
     showguides="true"
     inkscape:guide-bbox="true">
    <inkscape:grid
       type="xygrid"
       id="grid4230"
       empspacing="5"
       visible="true"
       enabled="true"
       snapvisiblegridlinesonly="true" />
  </sodipodi:namedview>
  <metadata
     id="metadata7">
    <rdf:RDF>
      <cc:Work
         rdf:about="">
        <dc:format>image/svg+xml</dc:format>
        <dc:type
           rdf:resource="http://purl.org/dc/dcmitype/StillImage" />
        <dc:title />
      </cc:Work>
    </rdf:RDF>
  </metadata>
  <g
     inkscape:label="Layer 1"
     inkscape:groupmode="layer"
     id="layer1"
     transform="translate(0,-982.36219)">
    <g
       id="g69790"
       transform="matrix(2.73355,0,0,2.73355,-1686.8387,-1536.5147)">
      <path
         sodipodi:open="true"
         sodipodi:end="3.9302634"
         sodipodi:start="2.3570674"
         transform="matrix(1.1716987,0,0,1.1716987,-102.54555,-158.8247)"
         d="m 619.36561,934.92408 c -3.15804,-3.16356 -3.15357,-8.28824 0.01,-11.44629 0.005,-0.005 0.009,-0.009 0.0138,-0.0137"
         sodipodi:ry="8.09375"
         sodipodi:rx="8.09375"
         sodipodi:cy="929.20593"
         sodipodi:cx="625.09375"
         id="path69792"
         style="fill:none;stroke:#ff0000;stroke-width:1.05842698;stroke-linecap:square;stroke-linejoin:miter;stroke-miterlimit:4;stroke-opacity:1;stroke-dasharray:none"
         sodipodi:type="arc" />
      <path
         sodipodi:open="true"
         sodipodi:end="7.0697102"
         sodipodi:start="5.4973611"
         sodipodi:type="arc"
         style="fill:none;stroke:#ff0000;stroke-width:1.05842698;stroke-linecap:square;stroke-linejoin:miter;stroke-miterlimit:4;stroke-opacity:1;stroke-dasharray:none"
         id="path69794"
         sodipodi:cx="625.09375"
         sodipodi:cy="929.20593"
         sodipodi:rx="8.09375"
         sodipodi:ry="8.09375"
         d="m 630.81446,923.48035 c 3.16215,3.15946 3.16433,8.28414 0.005,11.44629 -0.003,0.003 -0.006,0.006 -0.009,0.009"
         transform="matrix(1.1716987,0,0,1.1716987,-102.54555,-158.8247)" />
      <path
         transform="matrix(0.8705266,0,0,0.87052667,85.715243,121.02614)"
         d="m 633.1875,929.20593 c 0,4.47006 -3.6237,8.09375 -8.09375,8.09375 -4.47005,0 -8.09375,-3.62369 -8.09375,-8.09375 0,-4.47005 3.6237,-8.09375 8.09375,-8.09375 4.47005,0 8.09375,3.6237 8.09375,8.09375 z"
         sodipodi:ry="8.09375"
         sodipodi:rx="8.09375"
         sodipodi:cy="929.20593"
         sodipodi:cx="625.09375"
         id="path69796"
         style="fill:none;stroke:#ff0000;stroke-width:1.4246062;stroke-linecap:round;stroke-linejoin:miter;stroke-miterlimit:4;stroke-opacity:1;stroke-dasharray:none"
         sodipodi:type="arc" />
      <path
         sodipodi:type="arc"
         style="fill:none;stroke:#ff0000;stroke-width:4.48987341;stroke-linecap:round;stroke-linejoin:miter;stroke-miterlimit:4;stroke-opacity:1;stroke-dasharray:none"
         id="path69798"
         sodipodi:cx="625.09375"
         sodipodi:cy="929.20593"
         sodipodi:rx="8.09375"
         sodipodi:ry="8.09375"
         d="m 633.1875,929.20593 c 0,4.47006 -3.6237,8.09375 -8.09375,8.09375 -4.47005,0 -8.09375,-3.62369 -8.09375,-8.09375 0,-4.47005 3.6237,-8.09375 8.09375,-8.09375 4.47005,0 8.09375,3.6237 8.09375,8.09375 z"
         transform="matrix(0.27621213,0,0,0.27621213,457.2175,673.26674)" />
      <path
         transform="translate(0,2.5390623e-6)"
         inkscape:connector-curvature="0"
         id="path69800"
         d="m 623.81841,933.42203 4.1248,-2.38146"
         style="fill:none;stroke:#ff0000;stroke-width:1.24015749;stroke-linecap:square;stroke-linejoin:miter;stroke-miterlimit:4;stroke-opacity:1;stroke-dasharray:none" />
      <path
         sodipodi:nodetypes="cc"
         transform="translate(0,2.5390623e-6)"
         inkscape:connector-curvature="0"
         id="path69802"
         d="m 635.86753,933.3839 -3.94514,-2.27772"
         style="fill:none;stroke:#ff0000;stroke-width:1.24015749;stroke-linecap:square;stroke-linejoin:miter;stroke-miterlimit:4;stroke-opacity:1;stroke-dasharray:none" />
      <path
         inkscape:connector-curvature="0"
         id="path69804"
         d="m 629.87598,923.10185 0,4.389"
         style="fill:none;stroke:#ff0000;stroke-width:1.24015749;stroke-linecap:square;stroke-linejoin:miter;stroke-miterlimit:4;stroke-opacity:1;stroke-dasharray:none" />
    </g>
    <g
       id="g36356"
       transform="matrix(3.3651869,0,0,3.3651869,-1516.1811,-467.52266)">
      <path
         transform="matrix(1.460237,0,0,1.4602372,-451.72993,-918.5397)"
         d="m 631.30938,934.39002 c -2.8631,3.4328 -7.96693,3.89463 -11.39972,1.03154 -0.42697,-0.35612 -0.81612,-0.75528 -1.16127,-1.19117"
         sodipodi:ry="8.09375"
         sodipodi:rx="8.09375"
         sodipodi:cy="929.20593"
         sodipodi:cx="625.09375"
         id="path69806"
         style="fill:none;stroke:#ff0000;stroke-width:0.84928501;stroke-linecap:butt;stroke-linejoin:miter;stroke-miterlimit:4;stroke-opacity:1;stroke-dasharray:none"
         sodipodi:type="arc"
         sodipodi:start="0.69515615"
         sodipodi:end="2.4718517"
         sodipodi:open="true" />
      <path
         id="path69808"
         title="sin(x)"
         d="m 451.95447,445.68862 c 0.48387,0.57055 0.93649,0.85163 1.48287,1.32737 0.54637,0.47574 1.09274,0.8231 1.63911,0.70631 0.54637,-0.11678 1.09275,-0.67364 1.63913,-1.13032 0.54636,-0.45661 1.09273,-0.71298 1.63911,-0.52154 0.54638,0.19145 1.09274,0.79024 1.63911,1.21559 0.54639,0.42534 1.09275,0.58379 1.63912,0.32282 0.54638,-0.26097 1.09276,-0.88569 1.63912,-1.26837 0.54637,-0.38269 1.09275,-0.43902 1.63912,-0.11546 0.54637,0.32356 1.09275,0.95749 1.63912,1.28724 0.54636,0.32976 1.09275,0.2825 1.63912,-0.095 0.54637,-0.37749 1.31537,-0.87868 1.83822,-1.39671"
         style="fill:none;stroke:#ff0000;stroke-width:0.99921268;stroke-miterlimit:4;stroke-opacity:1;stroke-dasharray:none"
         inkscape:connector-curvature="0"
         sodipodi:nodetypes="cscccssssccc" />
    </g>
  </g>
</svg>
