<?xml version="1.0" encoding="UTF-8" standalone="no"?>
<!-- Created with Inkscape (http://www.inkscape.org/) -->

<svg
   xmlns:dc="http://purl.org/dc/elements/1.1/"
   xmlns:cc="http://creativecommons.org/ns#"
   xmlns:rdf="http://www.w3.org/1999/02/22-rdf-syntax-ns#"
   xmlns:svg="http://www.w3.org/2000/svg"
   xmlns="http://www.w3.org/2000/svg"
   xmlns:sodipodi="http://sodipodi.sourceforge.net/DTD/sodipodi-0.dtd"
   xmlns:inkscape="http://www.inkscape.org/namespaces/inkscape"
   width="70"
   height="70"
   id="svg2"
   version="1.1"
   inkscape:version="0.48.0 r9654"
   sodipodi:docname="14.svg"
   inkscape:export-filename=".\14.png"
   inkscape:export-xdpi="90"
   inkscape:export-ydpi="90">
  <defs
     id="defs4">
    <clipPath
       id="clipId0">
      <path
         inkscape:connector-curvature="0"
         d="M 0,600 1000,600 1000,0 0,0 z"
         id="path7" />
    </clipPath>
    <clipPath
       id="clipId0-1">
      <path
         inkscape:connector-curvature="0"
         d="M 0,600 1000,600 1000,0 0,0 z"
         id="path7-7" />
    </clipPath>
    <clipPath
       id="clipId0-1-9">
      <path
         id="path7-7-4"
         d="M 0,600 1000,600 1000,0 0,0 z"
         inkscape:connector-curvature="0" />
    </clipPath>
    <clipPath
       id="clipId0-4">
      <path
         id="path7-0"
         d="M 0,600 1000,600 1000,0 0,0 z"
         inkscape:connector-curvature="0" />
    </clipPath>
  </defs>
  <sodipodi:namedview
     id="base"
     pagecolor="#000000"
     bordercolor="#666666"
     borderopacity="1.0"
     inkscape:pageopacity="0"
     inkscape:pageshadow="2"
     inkscape:zoom="8.0000001"
     inkscape:cx="51.062876"
     inkscape:cy="33.830914"
     inkscape:document-units="px"
     inkscape:current-layer="layer1"
     showgrid="true"
     units="mm"
     inkscape:window-width="1280"
     inkscape:window-height="906"
     inkscape:window-x="-4"
     inkscape:window-y="-4"
     inkscape:window-maximized="1"
     inkscape:snap-global="false"
     showguides="true"
     inkscape:guide-bbox="true">
    <inkscape:grid
       type="xygrid"
       id="grid4230"
       empspacing="5"
       visible="true"
       enabled="true"
       snapvisiblegridlinesonly="true" />
  </sodipodi:namedview>
  <metadata
     id="metadata7">
    <rdf:RDF>
      <cc:Work
         rdf:about="">
        <dc:format>image/svg+xml</dc:format>
        <dc:type
           rdf:resource="http://purl.org/dc/dcmitype/StillImage" />
        <dc:title />
      </cc:Work>
    </rdf:RDF>
  </metadata>
  <g
     inkscape:label="Layer 1"
     inkscape:groupmode="layer"
     id="layer1"
     transform="translate(0,-982.36219)">
    <g
       id="g29262"
       transform="matrix(3.2133798,0,0,3.2133798,-1988.9651,-1970.8893)">
      <path
         sodipodi:open="true"
         sodipodi:end="3.9302634"
         sodipodi:start="2.3570674"
         transform="matrix(1.1716987,0,0,1.1716987,-102.54555,-158.8247)"
         d="m 619.36561,934.92408 c -3.15804,-3.16356 -3.15357,-8.28824 0.01,-11.44629 0.005,-0.005 0.009,-0.009 0.0138,-0.0137"
         sodipodi:ry="8.09375"
         sodipodi:rx="8.09375"
         sodipodi:cy="929.20593"
         sodipodi:cx="625.09375"
         id="path27425"
         style="fill:none;stroke:#ff0000;stroke-width:1.05842698;stroke-linecap:square;stroke-linejoin:miter;stroke-miterlimit:4;stroke-opacity:1;stroke-dasharray:none"
         sodipodi:type="arc" />
      <path
         sodipodi:open="true"
         sodipodi:end="7.0697102"
         sodipodi:start="5.4973611"
         sodipodi:type="arc"
         style="fill:none;stroke:#ff0000;stroke-width:1.05842698;stroke-linecap:square;stroke-linejoin:miter;stroke-miterlimit:4;stroke-opacity:1;stroke-dasharray:none"
         id="path27433"
         sodipodi:cx="625.09375"
         sodipodi:cy="929.20593"
         sodipodi:rx="8.09375"
         sodipodi:ry="8.09375"
         d="m 630.81446,923.48035 c 3.16215,3.15946 3.16433,8.28414 0.005,11.44629 -0.003,0.003 -0.006,0.006 -0.009,0.009"
         transform="matrix(1.1716987,0,0,1.1716987,-102.54555,-158.8247)" />
      <path
         transform="matrix(0.8705266,0,0,0.87052667,85.715243,121.02614)"
         d="m 633.1875,929.20593 c 0,4.47006 -3.6237,8.09375 -8.09375,8.09375 -4.47005,0 -8.09375,-3.62369 -8.09375,-8.09375 0,-4.47005 3.6237,-8.09375 8.09375,-8.09375 4.47005,0 8.09375,3.6237 8.09375,8.09375 z"
         sodipodi:ry="8.09375"
         sodipodi:rx="8.09375"
         sodipodi:cy="929.20593"
         sodipodi:cx="625.09375"
         id="path27435"
         style="fill:none;stroke:#ff0000;stroke-width:1.4246062;stroke-linecap:round;stroke-linejoin:miter;stroke-miterlimit:4;stroke-opacity:1;stroke-dasharray:none"
         sodipodi:type="arc" />
      <path
         sodipodi:type="arc"
         style="fill:none;stroke:#ff0000;stroke-width:4.48987341;stroke-linecap:round;stroke-linejoin:miter;stroke-miterlimit:4;stroke-opacity:1;stroke-dasharray:none"
         id="path27437"
         sodipodi:cx="625.09375"
         sodipodi:cy="929.20593"
         sodipodi:rx="8.09375"
         sodipodi:ry="8.09375"
         d="m 633.1875,929.20593 c 0,4.47006 -3.6237,8.09375 -8.09375,8.09375 -4.47005,0 -8.09375,-3.62369 -8.09375,-8.09375 0,-4.47005 3.6237,-8.09375 8.09375,-8.09375 4.47005,0 8.09375,3.6237 8.09375,8.09375 z"
         transform="matrix(0.27621213,0,0,0.27621213,457.2175,673.26674)" />
      <path
         transform="translate(0,2.5390623e-6)"
         inkscape:connector-curvature="0"
         id="path27466"
         d="m 623.81841,933.42203 4.1248,-2.38146"
         style="fill:none;stroke:#ff0000;stroke-width:1.24015749;stroke-linecap:square;stroke-linejoin:miter;stroke-miterlimit:4;stroke-opacity:1;stroke-dasharray:none" />
      <path
         sodipodi:nodetypes="cc"
         transform="translate(0,2.5390623e-6)"
         inkscape:connector-curvature="0"
         id="path27468"
         d="m 635.86753,933.3839 -3.94514,-2.27772"
         style="fill:none;stroke:#ff0000;stroke-width:1.24015749;stroke-linecap:square;stroke-linejoin:miter;stroke-miterlimit:4;stroke-opacity:1;stroke-dasharray:none" />
      <path
         inkscape:connector-curvature="0"
         id="path27470"
         d="m 629.87598,923.06775 0,4.389"
         style="fill:none;stroke:#ff0000;stroke-width:1.24015749;stroke-linecap:square;stroke-linejoin:miter;stroke-miterlimit:4;stroke-opacity:1;stroke-dasharray:none" />
    </g>
  </g>
</svg>
