<?xml version="1.0" encoding="UTF-8" standalone="no"?>
<!-- Created with Inkscape (http://www.inkscape.org/) -->

<svg
   xmlns:dc="http://purl.org/dc/elements/1.1/"
   xmlns:cc="http://creativecommons.org/ns#"
   xmlns:rdf="http://www.w3.org/1999/02/22-rdf-syntax-ns#"
   xmlns:svg="http://www.w3.org/2000/svg"
   xmlns="http://www.w3.org/2000/svg"
   xmlns:sodipodi="http://sodipodi.sourceforge.net/DTD/sodipodi-0.dtd"
   xmlns:inkscape="http://www.inkscape.org/namespaces/inkscape"
   width="70"
   height="70"
   id="svg2"
   version="1.1"
   inkscape:version="0.48.0 r9654"
   sodipodi:docname="15.svg"
   inkscape:export-filename=".\14.png"
   inkscape:export-xdpi="90"
   inkscape:export-ydpi="90">
  <defs
     id="defs4">
    <clipPath
       id="clipId0">
      <path
         inkscape:connector-curvature="0"
         d="M 0,600 1000,600 1000,0 0,0 z"
         id="path7" />
    </clipPath>
    <clipPath
       id="clipId0-1">
      <path
         inkscape:connector-curvature="0"
         d="M 0,600 1000,600 1000,0 0,0 z"
         id="path7-7" />
    </clipPath>
    <clipPath
       id="clipId0-1-9">
      <path
         id="path7-7-4"
         d="M 0,600 1000,600 1000,0 0,0 z"
         inkscape:connector-curvature="0" />
    </clipPath>
    <clipPath
       id="clipId0-4">
      <path
         id="path7-0"
         d="M 0,600 1000,600 1000,0 0,0 z"
         inkscape:connector-curvature="0" />
    </clipPath>
    <clipPath
       id="clipId0-17">
      <path
         inkscape:connector-curvature="0"
         d="M 0,600 1000,600 1000,0 0,0 z"
         id="path7-4" />
    </clipPath>
    <clipPath
       id="clipId0-40">
      <path
         id="path7-9"
         d="M 0,600 1000,600 1000,0 0,0 z"
         inkscape:connector-curvature="0" />
    </clipPath>
  </defs>
  <sodipodi:namedview
     id="base"
     pagecolor="#000000"
     bordercolor="#666666"
     borderopacity="1.0"
     inkscape:pageopacity="0"
     inkscape:pageshadow="2"
     inkscape:zoom="5.6568544"
     inkscape:cx="76.518578"
     inkscape:cy="49.165102"
     inkscape:document-units="px"
     inkscape:current-layer="layer1"
     showgrid="true"
     units="mm"
     inkscape:window-width="1280"
     inkscape:window-height="906"
     inkscape:window-x="-4"
     inkscape:window-y="-4"
     inkscape:window-maximized="1"
     inkscape:snap-global="false"
     showguides="true"
     inkscape:guide-bbox="true">
    <inkscape:grid
       type="xygrid"
       id="grid4230"
       empspacing="5"
       visible="true"
       enabled="true"
       snapvisiblegridlinesonly="true" />
  </sodipodi:namedview>
  <metadata
     id="metadata7">
    <rdf:RDF>
      <cc:Work
         rdf:about="">
        <dc:format>image/svg+xml</dc:format>
        <dc:type
           rdf:resource="http://purl.org/dc/dcmitype/StillImage" />
        <dc:title />
      </cc:Work>
    </rdf:RDF>
  </metadata>
  <g
     inkscape:label="Layer 1"
     inkscape:groupmode="layer"
     id="layer1"
     transform="translate(0,-982.36219)">
    <path
       inkscape:connector-curvature="0"
       d="m 25,1011.3622 8,0 m -4,4 0,-3 m -7,3 13,0 3,4 13.692355,-5.9601 2.117305,2.5049 M 22,1019.3622 l -7.617216,-3.3574 1.82007,-5.9112 5.797146,3.2686 1e-6,11 16.624349,0 9.257186,-9.2721"
       style="fill:none;stroke:#ff0000;stroke-width:2;stroke-linecap:butt;stroke-linejoin:miter;stroke-miterlimit:4;stroke-opacity:1;stroke-dasharray:none"
       id="path69830"
       sodipodi:nodetypes="cccccccccccccccc" />
    <path
       sodipodi:nodetypes="ccccssccc"
       inkscape:connector-curvature="0"
       id="path28045"
       d="m 53.000405,1017.6436 -1.836332,4.7324 c -0.05939,0.1713 -0.02189,0.061 -0.06345,0.1988 -0.07825,0.2161 -0.09958,0.456 -0.09958,0.6994 2.14e-4,1.1162 0.882625,1.999 1.998954,1.999 1.116076,0 2.032122,-0.8828 2.032122,-1.999 0,-0.2441 -0.05497,-0.4827 -0.133064,-0.6994 l -0.05939,-0.1501 z"
       style="fill:#ff0000;fill-opacity:1;stroke:none" />
    <g
       id="g3115"
       transform="matrix(1.32,0,0,1.32,0.35000264,-338.42591)">
      <path
         id="path35016-1"
         sodipodi:type="arc"
         style="fill:none;stroke:#ff0000;stroke-width:1.28378427;stroke-linecap:round;stroke-linejoin:miter;stroke-miterlimit:4;stroke-opacity:1;stroke-dasharray:none"
         sodipodi:cx="625.09375"
         sodipodi:cy="929.20593"
         sodipodi:rx="8.09375"
         sodipodi:ry="8.09375"
         d="m 633.1875,929.20593 c 0,4.47006 -3.6237,8.09375 -8.09375,8.09375 -4.47005,0 -8.09375,-3.62369 -8.09375,-8.09375 0,-4.47005 3.6237,-8.09375 8.09375,-8.09375 4.47005,0 8.09375,3.6237 8.09375,8.09375 z"
         transform="matrix(2.348067,0,0,2.3256695,-1441.5121,-1133.9137)" />
      <path
         inkscape:transform-center-y="-22.5"
         sodipodi:nodetypes="ccccc"
         inkscape:connector-curvature="0"
         id="path3861-1"
         d="m 23.749998,1007.1122 1,-5 3,0 1,5 z"
         style="fill:#ff0000;fill-opacity:1;stroke:none" />
      <path
         inkscape:transform-center-x="-22.5"
         style="fill:#ff0000;fill-opacity:1;stroke:none"
         d="m 46.249998,1024.6122 5,1 0,3 -5,1 z"
         id="path3774-5"
         inkscape:connector-curvature="0"
         sodipodi:nodetypes="ccccc" />
      <path
         inkscape:transform-center-x="-10.816987"
         inkscape:transform-center-y="-19.23555"
         sodipodi:nodetypes="ccccc"
         inkscape:connector-curvature="0"
         id="path3782-2"
         d="m 34.084934,1008.5417 3.366026,-3.8301 2.598076,1.5 -1.633974,4.8301 z"
         style="fill:#ff0000;fill-opacity:1;stroke:none" />
      <path
         inkscape:transform-center-x="-19.235571"
         inkscape:transform-center-y="-10.81695"
         sodipodi:nodetypes="ccccc"
         inkscape:connector-curvature="0"
         id="path3784-7"
         d="m 42.320506,1014.9471 4.830127,-1.6339 1.5,2.598 -3.830127,3.3661 z"
         style="fill:#ff0000;fill-opacity:1;stroke:none" />
      <path
         inkscape:transform-center-x="22.5"
         sodipodi:nodetypes="ccccc"
         inkscape:connector-curvature="0"
         id="path3786-6"
         d="m 6.249998,1029.6122 -5,-1 0,-3 5,-1 z"
         style="fill:#ff0000;fill-opacity:1;stroke:none" />
      <path
         inkscape:transform-center-y="22.5"
         sodipodi:nodetypes="ccccc"
         inkscape:connector-curvature="0"
         id="path3788-1"
         d="m 28.749998,1047.1122 -1,5 -3,0 -1,-5 z"
         style="fill:#ff0000;fill-opacity:1;stroke:none" />
      <path
         style="fill:#ff0000;fill-opacity:1;stroke:none"
         d="m 18.415098,1045.6827 -3.3661,3.8301 -2.598,-1.5 1.6339,-4.8301 z"
         id="path3790-4"
         inkscape:connector-curvature="0"
         sodipodi:nodetypes="ccccc"
         inkscape:transform-center-y="19.23555"
         inkscape:transform-center-x="10.81695" />
      <path
         style="fill:#ff0000;fill-opacity:1;stroke:none"
         d="m 10.179499,1039.2773 -4.8301,1.6339 -1.5,-2.598 3.8301,-3.3661 z"
         id="path3792-2"
         inkscape:connector-curvature="0"
         sodipodi:nodetypes="ccccc"
         inkscape:transform-center-y="10.81695"
         inkscape:transform-center-x="19.23555" />
      <path
         inkscape:transform-center-x="-19.23555"
         inkscape:transform-center-y="10.81695"
         sodipodi:nodetypes="ccccc"
         inkscape:connector-curvature="0"
         id="path3798-3"
         d="m 44.820498,1034.9471 3.8301,3.3661 -1.5,2.598 -4.8301,-1.6339 z"
         style="fill:#ff0000;fill-opacity:1;stroke:none" />
      <path
         inkscape:transform-center-x="-10.81695"
         inkscape:transform-center-y="19.23555"
         sodipodi:nodetypes="ccccc"
         inkscape:connector-curvature="0"
         id="path3800-2"
         d="m 38.415098,1043.1827 1.6339,4.8301 -2.598,1.5 -3.366099,-3.8301 z"
         style="fill:#ff0000;fill-opacity:1;stroke:none" />
      <path
         inkscape:transform-center-x="19.23555"
         inkscape:transform-center-y="-10.81695"
         sodipodi:nodetypes="ccccc"
         inkscape:connector-curvature="0"
         id="path3806-2"
         d="m 7.679498,1019.2773 -3.8301,-3.3661 1.5,-2.598 4.8301,1.6339 z"
         style="fill:#ff0000;fill-opacity:1;stroke:none" />
      <path
         inkscape:transform-center-x="10.81695"
         inkscape:transform-center-y="-19.23555"
         sodipodi:nodetypes="ccccc"
         inkscape:connector-curvature="0"
         id="path3808-1"
         d="m 14.084899,1011.0417 -1.633901,-4.8301 2.598,-1.5 3.3661,3.8301 z"
         style="fill:#ff0000;fill-opacity:1;stroke:none" />
    </g>
  </g>
</svg>
