<?xml version="1.0" encoding="UTF-8" standalone="no"?>
<!-- Created with Inkscape (http://www.inkscape.org/) -->

<svg
   xmlns:dc="http://purl.org/dc/elements/1.1/"
   xmlns:cc="http://creativecommons.org/ns#"
   xmlns:rdf="http://www.w3.org/1999/02/22-rdf-syntax-ns#"
   xmlns:svg="http://www.w3.org/2000/svg"
   xmlns="http://www.w3.org/2000/svg"
   xmlns:sodipodi="http://sodipodi.sourceforge.net/DTD/sodipodi-0.dtd"
   xmlns:inkscape="http://www.inkscape.org/namespaces/inkscape"
   width="84.999992"
   height="64.000587"
   id="svg2"
   version="1.1"
   inkscape:version="0.48.0 r9654"
   sodipodi:docname="battery.svg"
   inkscape:export-filename=".\01.png"
   inkscape:export-xdpi="90"
   inkscape:export-ydpi="90">
  <defs
     id="defs4">
    <clipPath
       id="clipId0">
      <path
         inkscape:connector-curvature="0"
         d="M 0,600 1000,600 1000,0 0,0 z"
         id="path7" />
    </clipPath>
    <clipPath
       id="clipId0-1">
      <path
         inkscape:connector-curvature="0"
         d="M 0,600 1000,600 1000,0 0,0 z"
         id="path7-7" />
    </clipPath>
  </defs>
  <sodipodi:namedview
     id="base"
     pagecolor="#000000"
     bordercolor="#666666"
     borderopacity="1.0"
     inkscape:pageopacity="0"
     inkscape:pageshadow="2"
     inkscape:zoom="5.6568543"
     inkscape:cx="52.078412"
     inkscape:cy="37.616235"
     inkscape:document-units="px"
     inkscape:current-layer="g3739"
     showgrid="true"
     units="mm"
     inkscape:window-width="1280"
     inkscape:window-height="906"
     inkscape:window-x="-4"
     inkscape:window-y="-4"
     inkscape:window-maximized="1"
     inkscape:snap-global="true"
     fit-margin-top="0"
     fit-margin-left="0"
     fit-margin-right="0"
     fit-margin-bottom="0"
     showguides="true"
     inkscape:guide-bbox="true">
    <inkscape:grid
       type="xygrid"
       id="grid4230"
       empspacing="5"
       visible="true"
       enabled="true"
       snapvisiblegridlinesonly="true" />
    <sodipodi:guide
       orientation="1,0"
       position="64,44.999996"
       id="guide3028" />
    <sodipodi:guide
       orientation="0,1"
       position="21,56.999996"
       id="guide3030" />
  </sodipodi:namedview>
  <metadata
     id="metadata7">
    <rdf:RDF>
      <cc:Work
         rdf:about="">
        <dc:format>image/svg+xml</dc:format>
        <dc:type
           rdf:resource="http://purl.org/dc/dcmitype/StillImage" />
        <dc:title />
      </cc:Work>
    </rdf:RDF>
  </metadata>
  <g
     inkscape:label="Layer 1"
     inkscape:groupmode="layer"
     id="layer1"
     transform="translate(7.864079,-986.16103)">
    <g
       id="g3739"
       transform="matrix(1.2363089,0,0,1.0876813,-843.82881,968.18329)">
      <path
         style="fill:#000000;fill-opacity:1;stroke:none"
         d="M 0 0 L 0 20 L 11 20 L 11 14 L 31 14 L 31 20 L 54 20 L 54 14 L 74 14 L 74 20 L 85 20 L 85 0 L 65 0 L 65 5 L 70 5 L 70 7 L 65 7 L 65 12 L 63 12 L 63.03125 7.03125 L 58 7 L 58 5 L 63 5 L 63 0 L 0 0 z M 14 5 L 28 5 L 28 7 L 14 7 L 14 5 z M 14 17 L 14 20 L 28 20 L 28 17 L 14 17 z M 57 17 L 57 20 L 71 20 L 71 17 L 57 17 z M 3 23 L 3 61 L 82 61 L 82 23 L 3 23 z "
         transform="matrix(0.80885934,0,0,0.91938696,676.17788,16.5285)"
         id="rect3047" />
    </g>
  </g>
</svg>
