<?xml version="1.0" encoding="UTF-8" standalone="no"?>
<!-- Created with Inkscape (http://www.inkscape.org/) -->

<svg
   xmlns:dc="http://purl.org/dc/elements/1.1/"
   xmlns:cc="http://creativecommons.org/ns#"
   xmlns:rdf="http://www.w3.org/1999/02/22-rdf-syntax-ns#"
   xmlns:svg="http://www.w3.org/2000/svg"
   xmlns="http://www.w3.org/2000/svg"
   xmlns:sodipodi="http://sodipodi.sourceforge.net/DTD/sodipodi-0.dtd"
   xmlns:inkscape="http://www.inkscape.org/namespaces/inkscape"
   width="50"
   height="50"
   id="svg2"
   version="1.1"
   inkscape:version="0.48.0 r9654"
   sodipodi:docname="fuel_sym_mask.svg"
   inkscape:export-filename=".\01.png"
   inkscape:export-xdpi="90"
   inkscape:export-ydpi="90">
  <defs
     id="defs4">
    <clipPath
       id="clipId0">
      <path
         inkscape:connector-curvature="0"
         d="M 0,600 1000,600 1000,0 0,0 z"
         id="path7" />
    </clipPath>
    <clipPath
       id="clipId0-1">
      <path
         inkscape:connector-curvature="0"
         d="M 0,600 1000,600 1000,0 0,0 z"
         id="path7-7" />
    </clipPath>
    <clipPath
       id="clipId0-17">
      <path
         inkscape:connector-curvature="0"
         d="M 0,600 1000,600 1000,0 0,0 z"
         id="path7-4" />
    </clipPath>
    <clipPath
       id="clipId0-174">
      <path
         inkscape:connector-curvature="0"
         d="M 0,600 1000,600 1000,0 0,0 z"
         id="path7-0" />
    </clipPath>
    <clipPath
       id="clipPath3866">
      <path
         inkscape:connector-curvature="0"
         d="M 0,600 1000,600 1000,0 0,0 z"
         id="path3868" />
    </clipPath>
    <clipPath
       id="clipPath3870">
      <path
         inkscape:connector-curvature="0"
         d="M 0,600 1000,600 1000,0 0,0 z"
         id="path3872" />
    </clipPath>
    <clipPath
       id="clipPath3874">
      <path
         inkscape:connector-curvature="0"
         d="M 0,600 1000,600 1000,0 0,0 z"
         id="path3876" />
    </clipPath>
    <clipPath
       id="clipPath3878">
      <path
         inkscape:connector-curvature="0"
         d="M 0,600 1000,600 1000,0 0,0 z"
         id="path3880" />
    </clipPath>
    <clipPath
       id="clipPath3882">
      <path
         inkscape:connector-curvature="0"
         d="M 0,600 1000,600 1000,0 0,0 z"
         id="path3884" />
    </clipPath>
    <clipPath
       id="clipPath3886">
      <path
         inkscape:connector-curvature="0"
         d="M 0,600 1000,600 1000,0 0,0 z"
         id="path3888" />
    </clipPath>
    <clipPath
       id="clipPath3890">
      <path
         inkscape:connector-curvature="0"
         d="M 0,600 1000,600 1000,0 0,0 z"
         id="path3892" />
    </clipPath>
    <clipPath
       id="clipPath3894">
      <path
         inkscape:connector-curvature="0"
         d="M 0,600 1000,600 1000,0 0,0 z"
         id="path3896" />
    </clipPath>
    <clipPath
       id="clipPath3898">
      <path
         inkscape:connector-curvature="0"
         d="M 0,600 1000,600 1000,0 0,0 z"
         id="path3900" />
    </clipPath>
    <clipPath
       id="clipPath3902">
      <path
         inkscape:connector-curvature="0"
         d="M 0,600 1000,600 1000,0 0,0 z"
         id="path3904" />
    </clipPath>
  </defs>
  <sodipodi:namedview
     id="base"
     pagecolor="#ffffff"
     bordercolor="#666666"
     borderopacity="1.0"
     inkscape:pageopacity="0.0"
     inkscape:pageshadow="2"
     inkscape:zoom="5.6568543"
     inkscape:cx="21.955642"
     inkscape:cy="37.893288"
     inkscape:document-units="px"
     inkscape:current-layer="layer1"
     showgrid="true"
     units="mm"
     inkscape:window-width="1280"
     inkscape:window-height="906"
     inkscape:window-x="-4"
     inkscape:window-y="-4"
     inkscape:window-maximized="1"
     inkscape:snap-global="true"
     showguides="true"
     inkscape:guide-bbox="true"
     inkscape:snap-center="true"
     inkscape:snap-object-midpoints="true">
    <inkscape:grid
       type="xygrid"
       id="grid4230"
       empspacing="5"
       visible="true"
       enabled="true"
       snapvisiblegridlinesonly="true" />
    <sodipodi:guide
       orientation="1,0"
       position="25,25"
       id="guide3766" />
    <sodipodi:guide
       orientation="0,1"
       position="25.000001,25"
       id="guide3768" />
  </sodipodi:namedview>
  <metadata
     id="metadata7">
    <rdf:RDF>
      <cc:Work
         rdf:about="">
        <dc:format>image/svg+xml</dc:format>
        <dc:type
           rdf:resource="http://purl.org/dc/dcmitype/StillImage" />
        <dc:title />
      </cc:Work>
    </rdf:RDF>
  </metadata>
  <g
     inkscape:label="Layer 1"
     inkscape:groupmode="layer"
     id="layer1"
     transform="translate(0,-1002.3622)">
    <g
       id="g3843">
      <g
         transform="translate(39.007863,0.00290335)"
         id="g3825" />
    </g>
    <path
       style="fill:#000000;fill-opacity:1;stroke:none"
       d="M 0 0 L 0 50 L 2.09375 50 L 2.09375 46 L 6.09375 46 L 6.09375 4 C 6.09375 1.5001 7.6093614 0 10.09375 0 L 0 0 z M 25.09375 0 C 27.651799 0 29.08855 1.57515 29.09375 3.96875 C 29.08845 3.99495 29.06101 13.8212 29.09375 19 L 31.09375 19 C 34.093757 19 36.3203 21.0017 36.84375 23.6875 C 36.86654 27.4704 36.85996 31.3679 36.9375 34.875 C 36.97619 36.6235 37.937059 38.8926 39.9375 39.1875 C 42.214191 39.6992 44.580211 37.61285 44.21875 35.28125 C 43.212662 31.03815 42.034772 26.7963 40.96875 22.5625 C 40.80975 20.1706 40.95209 17.75005 40.90625 15.34375 C 40.817004 13.54935 40.688657 12.2789 40.25 10.8125 C 39.773334 9.219 39.096432 7.65315 38.15625 6.28125 C 37.159487 4.82655 35.901996 3.69795 34.46875 2.46875 C 35.093731 1.74995 35.878792 0.8071 36.4375 0 L 25.09375 0 z M 36.4375 0 C 37.710932 0.6455 38.819587 1.15335 39.84375 1.96875 C 40.923079 2.82785 41.893799 3.8503 42.65625 5 C 43.819219 6.7537 44.754107 8.6742 45.21875 10.75 C 45.904738 12.5087 46.375 17.03125 46.375 17.03125 C 46.375 17.03125 45.347112 17.01025 44.5625 17.03125 L 44.5625 21.75 C 45.364924 25.2153 46.329124 28.63545 47.1875 32.09375 C 47.730413 33.91705 48.272797 35.8892 47.5625 37.75 C 46.574617 41.2964 42.535507 43.4899 39 42.625 C 36.263303 42.0448 33.842787 39.77315 33.28125 37.03125 C 33.00594 34.16345 33.08855 31.1283 33.09375 29 C 33.09899 26.8717 33.15277 27.1831 33.125 26 C 33.119421 23.5353 31.51742 23 29.09375 23 L 29.09375 46 L 33.09375 46 L 33.09375 50 L 50 50 L 50 0 L 36.4375 0 z M 10.09375 3.96875 L 10.09375 18.96875 L 25.09375 18.96875 L 25.09375 3.96875 L 10.09375 3.96875 z "
       transform="translate(0,1002.3622)"
       id="rect3193" />
  </g>
</svg>
