<?xml version="1.0" encoding="UTF-8" standalone="no"?>
<!-- Created with Inkscape (http://www.inkscape.org/) -->

<svg
   xmlns:dc="http://purl.org/dc/elements/1.1/"
   xmlns:cc="http://creativecommons.org/ns#"
   xmlns:rdf="http://www.w3.org/1999/02/22-rdf-syntax-ns#"
   xmlns:svg="http://www.w3.org/2000/svg"
   xmlns="http://www.w3.org/2000/svg"
   xmlns:sodipodi="http://sodipodi.sourceforge.net/DTD/sodipodi-0.dtd"
   xmlns:inkscape="http://www.inkscape.org/namespaces/inkscape"
   width="42"
   height="42"
   id="svg2"
   version="1.1"
   inkscape:version="0.48.0 r9654"
   sodipodi:docname="press_contour2_sym_mask.svg"
   inkscape:export-filename=".\14.png"
   inkscape:export-xdpi="90"
   inkscape:export-ydpi="90">
  <defs
     id="defs4">
    <clipPath
       id="clipId0">
      <path
         inkscape:connector-curvature="0"
         d="M 0,600 1000,600 1000,0 0,0 z"
         id="path7" />
    </clipPath>
    <clipPath
       id="clipId0-1">
      <path
         inkscape:connector-curvature="0"
         d="M 0,600 1000,600 1000,0 0,0 z"
         id="path7-7" />
    </clipPath>
    <clipPath
       id="clipId0-1-9">
      <path
         id="path7-7-4"
         d="M 0,600 1000,600 1000,0 0,0 z"
         inkscape:connector-curvature="0" />
    </clipPath>
    <clipPath
       id="clipId0-4">
      <path
         id="path7-0"
         d="M 0,600 1000,600 1000,0 0,0 z"
         inkscape:connector-curvature="0" />
    </clipPath>
    <clipPath
       id="clipId0-17">
      <path
         inkscape:connector-curvature="0"
         d="M 0,600 1000,600 1000,0 0,0 z"
         id="path7-4" />
    </clipPath>
    <clipPath
       id="clipId0-40">
      <path
         id="path7-9"
         d="M 0,600 1000,600 1000,0 0,0 z"
         inkscape:connector-curvature="0" />
    </clipPath>
  </defs>
  <sodipodi:namedview
     id="base"
     pagecolor="#000000"
     bordercolor="#666666"
     borderopacity="1.0"
     inkscape:pageopacity="0"
     inkscape:pageshadow="2"
     inkscape:zoom="8"
     inkscape:cx="13.34093"
     inkscape:cy="21.268201"
     inkscape:document-units="px"
     inkscape:current-layer="layer1"
     showgrid="true"
     units="mm"
     inkscape:window-width="1280"
     inkscape:window-height="975"
     inkscape:window-x="-4"
     inkscape:window-y="-4"
     inkscape:window-maximized="1"
     inkscape:snap-global="false"
     showguides="true"
     inkscape:guide-bbox="true"
     fit-margin-top="0"
     fit-margin-left="0"
     fit-margin-right="0"
     fit-margin-bottom="0">
    <inkscape:grid
       type="xygrid"
       id="grid4230"
       empspacing="5"
       visible="true"
       enabled="true"
       snapvisiblegridlinesonly="true" />
  </sodipodi:namedview>
  <metadata
     id="metadata7">
    <rdf:RDF>
      <cc:Work
         rdf:about="">
        <dc:format>image/svg+xml</dc:format>
        <dc:type
           rdf:resource="http://purl.org/dc/dcmitype/StillImage" />
        <dc:title />
      </cc:Work>
    </rdf:RDF>
  </metadata>
  <g
     inkscape:label="Layer 1"
     inkscape:groupmode="layer"
     id="layer1"
     transform="translate(-0.3818849,-1010.361)">
    <path
       style="fill:#000000;fill-opacity:1;stroke:none"
       d="M 0 0 L 0 42 L 42 42 L 42 0 L 0 0 z M 21 5.5 C 29.774188 5.5 36.9375 12.6633 36.9375 21.4375 C 36.9375 30.2117 29.774188 37.3125 21 37.3125 C 12.225791 37.3125 5.09375 30.2117 5.09375 21.4375 C 5.09375 12.6633 12.225791 5.5 21 5.5 z M 7.1875 5.625 L 8.90625 7.46875 L 8 8.375 C 0.79701973 15.565399 0.80960052 27.23452 8 34.4375 L 8.90625 35.34375 L 7.09375 37.1875 L 6.1875 36.28125 C -1.985945 28.093543 -2.0002282 14.735924 6.1875 6.5625 L 6.25 6.5625 L 7.1875 5.625 z M 34.90625 5.625 L 35.84375 6.5625 C 44.027825 14.7396 44.020849 28.09725 35.84375 36.28125 L 34.90625 37.1875 L 33.09375 35.34375 L 34 34.4375 C 41.193638 27.2377 41.199763 15.5686 34 8.375 L 33.09375 7.46875 L 34.90625 5.625 z M 21 8.0625 C 13.617214 8.0625 7.6875 14.0547 7.6875 21.4375 C 7.6875 28.8203 13.617214 34.78125 21 34.78125 C 28.382786 34.78125 34.34375 28.8203 34.34375 21.4375 C 34.34375 14.0547 28.382786 8.0625 21 8.0625 z M 16 13.03125 L 19 13.03125 L 19 14.5625 L 19 28.40625 L 19 30 L 16 30 L 16 28.40625 L 16 14.5625 L 16 13.03125 z M 22 13.03125 L 25 13.03125 L 25 14.5625 L 25 28.40625 L 25 30 L 22 30 L 22 28.40625 L 22 14.5625 L 22 13.03125 z "
       transform="translate(0.3818849,1010.361)"
       id="rect2996" />
  </g>
</svg>
