<?xml version="1.0" encoding="UTF-8" standalone="no"?>
<!-- Created with Inkscape (http://www.inkscape.org/) -->

<svg
   xmlns:dc="http://purl.org/dc/elements/1.1/"
   xmlns:cc="http://creativecommons.org/ns#"
   xmlns:rdf="http://www.w3.org/1999/02/22-rdf-syntax-ns#"
   xmlns:svg="http://www.w3.org/2000/svg"
   xmlns="http://www.w3.org/2000/svg"
   xmlns:sodipodi="http://sodipodi.sourceforge.net/DTD/sodipodi-0.dtd"
   xmlns:inkscape="http://www.inkscape.org/namespaces/inkscape"
   width="42"
   height="42"
   id="svg2"
   version="1.1"
   inkscape:version="0.48.0 r9654"
   sodipodi:docname="press_contour1_sym_mask.svg"
   inkscape:export-filename=".\14.png"
   inkscape:export-xdpi="90"
   inkscape:export-ydpi="90">
  <defs
     id="defs4">
    <clipPath
       id="clipId0">
      <path
         inkscape:connector-curvature="0"
         d="M 0,600 1000,600 1000,0 0,0 z"
         id="path7" />
    </clipPath>
    <clipPath
       id="clipId0-1">
      <path
         inkscape:connector-curvature="0"
         d="M 0,600 1000,600 1000,0 0,0 z"
         id="path7-7" />
    </clipPath>
    <clipPath
       id="clipId0-1-9">
      <path
         id="path7-7-4"
         d="M 0,600 1000,600 1000,0 0,0 z"
         inkscape:connector-curvature="0" />
    </clipPath>
    <clipPath
       id="clipId0-4">
      <path
         id="path7-0"
         d="M 0,600 1000,600 1000,0 0,0 z"
         inkscape:connector-curvature="0" />
    </clipPath>
    <clipPath
       id="clipId0-17">
      <path
         inkscape:connector-curvature="0"
         d="M 0,600 1000,600 1000,0 0,0 z"
         id="path7-4" />
    </clipPath>
    <clipPath
       id="clipId0-40">
      <path
         id="path7-9"
         d="M 0,600 1000,600 1000,0 0,0 z"
         inkscape:connector-curvature="0" />
    </clipPath>
  </defs>
  <sodipodi:namedview
     id="base"
     pagecolor="#000000"
     bordercolor="#666666"
     borderopacity="1.0"
     inkscape:pageopacity="0"
     inkscape:pageshadow="2"
     inkscape:zoom="8"
     inkscape:cx="16.985625"
     inkscape:cy="24.237268"
     inkscape:document-units="px"
     inkscape:current-layer="layer1"
     showgrid="true"
     units="mm"
     inkscape:window-width="1280"
     inkscape:window-height="975"
     inkscape:window-x="-4"
     inkscape:window-y="-4"
     inkscape:window-maximized="1"
     inkscape:snap-global="false"
     showguides="true"
     inkscape:guide-bbox="true"
     fit-margin-top="0"
     fit-margin-left="0"
     fit-margin-right="0"
     fit-margin-bottom="0">
    <inkscape:grid
       type="xygrid"
       id="grid4230"
       empspacing="5"
       visible="true"
       enabled="true"
       snapvisiblegridlinesonly="true" />
  </sodipodi:namedview>
  <metadata
     id="metadata7">
    <rdf:RDF>
      <cc:Work
         rdf:about="">
        <dc:format>image/svg+xml</dc:format>
        <dc:type
           rdf:resource="http://purl.org/dc/dcmitype/StillImage" />
        <dc:title />
      </cc:Work>
    </rdf:RDF>
  </metadata>
  <g
     inkscape:label="Layer 1"
     inkscape:groupmode="layer"
     id="layer1"
     transform="translate(-0.3818849,-1010.361)">
    <path
       style="fill:#000000;fill-opacity:1;stroke:none"
       d="M 0 0 L 0 42 L 42 42 L 42 22.21875 C 41.999129 27.593938 39.955822 32.94695 35.875 37.03125 L 34.96875 37.96875 L 33.15625 36.125 L 34.0625 35.21875 C 41.242545 28.03255 41.248664 16.3676 34.0625 9.1875 L 33.15625 8.28125 L 34.96875 6.46875 L 35.875 7.375 C 39.959306 11.45585 42.000871 16.843562 42 22.21875 L 42 0 L 0 0 z M 21.09375 6.34375 C 29.85138 6.34375 36.96875 13.4924 36.96875 22.25 C 36.96875 31.0076 29.85138 38.09375 21.09375 38.09375 C 12.336121 38.09375 5.1875 31.0076 5.1875 22.25 C 5.1875 13.4924 12.336121 6.34375 21.09375 6.34375 z M 7.28125 6.46875 L 9.03125 8.28125 L 8.09375 9.1875 C 0.9043816 16.3644 0.9169338 28.02935 8.09375 35.21875 L 9.03125 36.125 L 7.1875 37.96875 L 6.28125 37.03125 C -1.8767523 28.85895 -1.8910041 15.533 6.28125 7.375 L 6.375 7.375 L 7.28125 6.46875 z M 21.09375 8.875 C 13.724911 8.875 7.78125 14.8812 7.78125 22.25 C 7.78125 29.6189 13.724911 35.53125 21.09375 35.53125 C 28.46259 35.53125 34.375 29.6189 34.375 22.25 C 34.375 14.8812 28.46259 8.875 21.09375 8.875 z M 20.0625 13.96875 L 23 13.96875 L 23 15.4375 L 23 28.53125 L 23 30 L 20.0625 30 L 20.0625 28.53125 L 20.0625 15.4375 L 20.0625 13.96875 z "
       transform="translate(0.3818849,1010.361)"
       id="rect3011" />
  </g>
</svg>
