<?xml version="1.0" encoding="UTF-8" standalone="no"?>
<!-- Created with Inkscape (http://www.inkscape.org/) -->

<svg
   xmlns:dc="http://purl.org/dc/elements/1.1/"
   xmlns:cc="http://creativecommons.org/ns#"
   xmlns:rdf="http://www.w3.org/1999/02/22-rdf-syntax-ns#"
   xmlns:svg="http://www.w3.org/2000/svg"
   xmlns="http://www.w3.org/2000/svg"
   xmlns:sodipodi="http://sodipodi.sourceforge.net/DTD/sodipodi-0.dtd"
   xmlns:inkscape="http://www.inkscape.org/namespaces/inkscape"
   width="42"
   height="42"
   id="svg2"
   version="1.1"
   inkscape:version="0.48.0 r9654"
   sodipodi:docname="press_oil_sym_mask.svg"
   inkscape:export-filename=".\14.png"
   inkscape:export-xdpi="90"
   inkscape:export-ydpi="90">
  <defs
     id="defs4">
    <clipPath
       id="clipId0">
      <path
         inkscape:connector-curvature="0"
         d="M 0,600 1000,600 1000,0 0,0 z"
         id="path7" />
    </clipPath>
    <clipPath
       id="clipId0-1">
      <path
         inkscape:connector-curvature="0"
         d="M 0,600 1000,600 1000,0 0,0 z"
         id="path7-7" />
    </clipPath>
    <clipPath
       id="clipId0-1-9">
      <path
         id="path7-7-4"
         d="M 0,600 1000,600 1000,0 0,0 z"
         inkscape:connector-curvature="0" />
    </clipPath>
    <clipPath
       id="clipId0-4">
      <path
         id="path7-0"
         d="M 0,600 1000,600 1000,0 0,0 z"
         inkscape:connector-curvature="0" />
    </clipPath>
    <clipPath
       id="clipId0-17">
      <path
         inkscape:connector-curvature="0"
         d="M 0,600 1000,600 1000,0 0,0 z"
         id="path7-4" />
    </clipPath>
    <clipPath
       id="clipId0-40">
      <path
         id="path7-9"
         d="M 0,600 1000,600 1000,0 0,0 z"
         inkscape:connector-curvature="0" />
    </clipPath>
  </defs>
  <sodipodi:namedview
     id="base"
     pagecolor="#000000"
     bordercolor="#666666"
     borderopacity="1.0"
     inkscape:pageopacity="0"
     inkscape:pageshadow="2"
     inkscape:zoom="8"
     inkscape:cx="35.022372"
     inkscape:cy="35.991524"
     inkscape:document-units="px"
     inkscape:current-layer="layer1"
     showgrid="true"
     units="mm"
     inkscape:window-width="1280"
     inkscape:window-height="975"
     inkscape:window-x="-4"
     inkscape:window-y="-4"
     inkscape:window-maximized="1"
     inkscape:snap-global="false"
     showguides="true"
     inkscape:guide-bbox="true"
     fit-margin-top="0"
     fit-margin-left="0"
     fit-margin-right="0"
     fit-margin-bottom="0">
    <inkscape:grid
       type="xygrid"
       id="grid4230"
       empspacing="5"
       visible="true"
       enabled="true"
       snapvisiblegridlinesonly="true" />
  </sodipodi:namedview>
  <metadata
     id="metadata7">
    <rdf:RDF>
      <cc:Work
         rdf:about="">
        <dc:format>image/svg+xml</dc:format>
        <dc:type
           rdf:resource="http://purl.org/dc/dcmitype/StillImage" />
        <dc:title></dc:title>
      </cc:Work>
    </rdf:RDF>
  </metadata>
  <g
     inkscape:label="Layer 1"
     inkscape:groupmode="layer"
     id="layer1"
     transform="translate(-0.3818849,-1010.361)">
    <path
       style="fill:#000000;fill-opacity:1;stroke:none"
       d="M 0 0 L 0 42 L 42 42 L 42 0 L 0 0 z M 2.625 13.25 L 3.6875 13.84375 L 9.5 17.125 L 10 17.40625 L 10 18 L 10 19 L 15 19 L 15 17 L 12 17 L 12 15 L 20 15 L 20 17 L 17 17 L 17 19 L 22 19 L 22.5 19 L 22.8125 19.375 L 25.34375 22.75 L 38.3125 17.09375 L 38.96875 16.8125 L 39.46875 17.375 L 41.59375 19.875 L 40.0625 21.1875 L 38.40625 19.21875 L 35.5 20.5 L 26.34375 29.6875 L 26.03125 30 L 25.625 30 L 9 30 L 8 30 L 8 29 L 8 24.65625 L 1 21.53125 L 0.1875 21.1875 L 0.4375 20.34375 L 2.25 14.4375 L 2.625 13.25 z M 3.78125 16.1875 L 2.59375 20.09375 L 8 22.4375 L 8 18.53125 L 3.78125 16.1875 z M 10 21 L 10 28 L 25.21875 28 L 30.53125 22.6875 L 25.40625 24.90625 L 24.6875 25.21875 L 24.21875 24.59375 L 21.53125 21 L 10 21 z M 39.625 22.28125 L 41.46875 27.0625 L 41.53125 27.21875 C 41.609344 27.43545 41.65625 27.66215 41.65625 27.90625 C 41.65625 29.02245 40.741076 29.90625 39.625 29.90625 C 38.508671 29.90625 37.625214 29.02245 37.625 27.90625 C 37.625 27.66285 37.6405 27.43485 37.71875 27.21875 C 37.76031 27.08095 37.72186 27.1713 37.78125 27 L 39.625 22.28125 z "
       transform="translate(0.3818849,1010.361)"
       id="rect3011" />
  </g>
</svg>
