<?xml version="1.0" encoding="UTF-8" standalone="no"?>
<!-- Created with Inkscape (http://www.inkscape.org/) -->

<svg
   xmlns:dc="http://purl.org/dc/elements/1.1/"
   xmlns:cc="http://creativecommons.org/ns#"
   xmlns:rdf="http://www.w3.org/1999/02/22-rdf-syntax-ns#"
   xmlns:svg="http://www.w3.org/2000/svg"
   xmlns="http://www.w3.org/2000/svg"
   xmlns:sodipodi="http://sodipodi.sourceforge.net/DTD/sodipodi-0.dtd"
   xmlns:inkscape="http://www.inkscape.org/namespaces/inkscape"
   width="50"
   height="50"
   id="svg2"
   version="1.1"
   inkscape:version="0.48.0 r9654"
   sodipodi:docname="temp_water_mask.svg"
   inkscape:export-filename=".\01.png"
   inkscape:export-xdpi="90"
   inkscape:export-ydpi="90">
  <defs
     id="defs4">
    <clipPath
       id="clipId0">
      <path
         inkscape:connector-curvature="0"
         d="M 0,600 1000,600 1000,0 0,0 z"
         id="path7" />
    </clipPath>
    <clipPath
       id="clipId0-1">
      <path
         inkscape:connector-curvature="0"
         d="M 0,600 1000,600 1000,0 0,0 z"
         id="path7-7" />
    </clipPath>
    <clipPath
       id="clipId0-17">
      <path
         inkscape:connector-curvature="0"
         d="M 0,600 1000,600 1000,0 0,0 z"
         id="path7-4" />
    </clipPath>
  </defs>
  <sodipodi:namedview
     id="base"
     pagecolor="#ffffff"
     bordercolor="#666666"
     borderopacity="1.0"
     inkscape:pageopacity="0.0"
     inkscape:pageshadow="2"
     inkscape:zoom="7.0993521"
     inkscape:cx="56.564349"
     inkscape:cy="43.410387"
     inkscape:document-units="px"
     inkscape:current-layer="g35137"
     showgrid="true"
     units="mm"
     inkscape:window-width="1280"
     inkscape:window-height="906"
     inkscape:window-x="-4"
     inkscape:window-y="-4"
     inkscape:window-maximized="1"
     inkscape:snap-global="true"
     showguides="true"
     inkscape:guide-bbox="true"
     inkscape:snap-center="true"
     inkscape:snap-object-midpoints="true">
    <inkscape:grid
       type="xygrid"
       id="grid4230"
       empspacing="5"
       visible="true"
       enabled="true"
       snapvisiblegridlinesonly="true" />
    <sodipodi:guide
       orientation="1,0"
       position="25,25"
       id="guide3766" />
    <sodipodi:guide
       orientation="0,1"
       position="25.000001,25"
       id="guide3768" />
  </sodipodi:namedview>
  <metadata
     id="metadata7">
    <rdf:RDF>
      <cc:Work
         rdf:about="">
        <dc:format>image/svg+xml</dc:format>
        <dc:type
           rdf:resource="http://purl.org/dc/dcmitype/StillImage" />
        <dc:title />
      </cc:Work>
    </rdf:RDF>
  </metadata>
  <g
     inkscape:label="Layer 1"
     inkscape:groupmode="layer"
     id="layer1"
     transform="translate(0,-1002.3622)">
    <g
       id="g3843">
      <g
         transform="translate(39.007863,0.00290335)"
         id="g3825" />
    </g>
    <g
       id="g35137"
       transform="matrix(1.7926808,0,0,1.7926808,-490.74642,20.795257)">
      <path
         style="fill:#000000;fill-opacity:1;stroke:none"
         d="m 0,0 0,50 50,0 0,-18.1875 c -0.213238,0.689979 -1.023193,1.131773 -1.71875,0.9375 -1.766812,-0.390858 -2.786452,-1.697689 -3.75,-2.53125 -0.443455,-0.383634 -0.842061,-0.614595 -1.125,-0.71875 -0.282939,-0.104155 -0.403278,-0.131518 -0.59375,-0.0625 -0.440695,0.1598 -1.50157,1.232019 -2.6875,2.1875 -0.631974,0.509372 -1.354079,0.942182 -2.15625,1.125 -0.802171,0.182818 -1.712045,0.04575 -2.5,-0.34375 -1.505171,-0.744034 -2.49977,-1.973264 -3.3125,-2.5625 -0.605281,-0.425478 -0.768945,-1.36327 -0.343564,-1.968619 0.42538,-0.60535 1.363147,-0.769164 1.968564,-0.343881 1.268214,0.919484 2.330477,2.090394 2.90625,2.375 0.252517,0.124591 0.386699,0.148068 0.625,0.09375 0.238301,-0.05432 0.591502,-0.233256 1,-0.5625 0.895372,-0.721393 1.890642,-2.030081 3.53125,-2.625 0.85,-0.308377 1.773717,-0.21662 2.53125,0.0625 0.757533,0.27912 1.402984,0.702279 2,1.21875 1.117396,0.966649 2.154619,1.836694 2.46875,1.90625 0.541431,0.07836 1.016727,0.502269 1.15625,1.03125 L 50,0 z M 25.999997,7.000006 26,9 l 4,0 0,2 -4,0 0,2 4,0 0,2 -4,0 0,2 4,0 0,2 -4,0 0,5.84375 c 1.292948,0.4224 2.21875,1.6284 2.21875,3.0625 0,1.7846 -1.434073,3.21875 -3.21875,3.21875 -1.784677,0 -3.25,-1.43415 -3.25,-3.21875 0,-1.4341 0.957052,-2.6401 2.25,-3.0625 l -3e-6,-17.843744 z M 7.09375,26.84375 c 0.429291,-0.01763 0.8874823,0.03338 1.3125,0.1875 1.640393,0.594937 2.635914,1.934768 3.53125,2.65625 0.408498,0.329244 0.761699,0.476932 1,0.53125 0.238301,0.0545 0.372483,0.09352 0.625,-0.03125 0.575773,-0.284606 1.638036,-1.486766 2.90625,-2.40625 0.599197,-0.346735 1.448611,-0.162463 1.850264,0.401396 0.401653,0.563859 0.29824,1.426857 -0.225264,1.879854 -0.81273,0.589236 -1.807329,1.880966 -3.3125,2.625 -0.787955,0.38946 -1.666579,0.464068 -2.46875,0.28125 -0.802171,-0.182818 -1.493026,-0.615628 -2.125,-1.125 -1.1856074,-0.955391 -2.3094487,-1.965272 -2.75,-2.125 -0.1906157,-0.0692 -0.3107933,-0.104334 -0.59375,0 -0.2829567,0.104262 -0.6815446,0.366366 -1.125,0.75 -0.963548,0.833561 -1.9206876,2.171642 -3.6875,2.5625 C 1.3113609,33.194709 0.50763031,32.688543 0.34402661,31.968687 0.18042291,31.248831 0.68642654,30.444998 1.40625,30.28125 c 0.3141315,-0.0695 1.3513541,-0.970851 2.46875,-1.9375 0.5970165,-0.516471 1.2424489,-0.970898 2,-1.25 0.3787755,-0.139506 0.789459,-0.232365 1.21875,-0.25 z m 0.15625,9.25 c 0.052619,0.0074 0.1048142,0.01789 0.15625,0.03125 1.8508354,0.137122 2.945972,1.421792 3.96875,2.34375 0.473734,0.426891 0.886566,0.771677 1.21875,0.9375 0.332184,0.165823 0.550181,0.155296 0.6875,0.125 0.314131,-0.0695 1.351354,-0.939601 2.46875,-1.90625 0.597016,-0.516471 1.242467,-0.93963 2,-1.21875 0.757533,-0.279031 1.68125,-0.370787 2.53125,-0.0625 1.640393,0.594937 2.635914,1.903518 3.53125,2.625 0.408498,0.329244 0.761699,0.508182 1,0.5625 0.238301,0.05432 0.372483,-2.29e-4 0.625,-0.125 0.575773,-0.284606 1.638036,-1.424266 2.90625,-2.34375 1.347486,-0.976724 3.198316,-1.175009 4.65625,-0.28125 1.38135,0.846809 2.413395,2.086683 3.125,2.53125 0.632834,0.395447 0.837128,0.362534 1.5625,-0.15625 0.803193,-0.574447 1.82185,-1.836862 3.3125,-2.59375 0.652402,-0.460823 1.687844,-0.209022 2.055779,0.499928 0.367936,0.708949 -0.02217,1.700593 -0.774529,1.968822 -0.590294,0.299718 -1.690999,1.492413 -2.96875,2.40625 -1.355571,0.9695 -3.17689,1.123444 -4.625,0.21875 -1.369339,-0.855485 -2.456656,-2.071137 -3.15625,-2.5 -0.62301,-0.382002 -0.829043,-0.375387 -1.5625,0.15625 -0.81273,0.589236 -1.807329,1.880966 -3.3125,2.625 -0.787955,0.38946 -1.697829,0.464068 -2.5,0.28125 -0.802171,-0.182818 -1.493026,-0.553128 -2.125,-1.0625 -1.185607,-0.955391 -2.278199,-2.027772 -2.71875,-2.1875 -0.190472,-0.0692 -0.310811,-0.04165 -0.59375,0.0625 -0.282939,0.104244 -0.681545,0.335116 -1.125,0.71875 -0.963548,0.833561 -1.983188,2.140392 -3.75,2.53125 C 12.940544,42.481062 12.083342,42.228517 11.375,41.875 10.666658,41.521483 10.035667,41.04211 9.46875,40.53125 8.4109428,39.577705 7.4488585,38.924177 7.21875,38.90625 6.5490527,38.839852 5.9769917,38.229265 5.9543199,37.556666 5.931648,36.884067 6.461294,36.236344 7.125,36.125 7.166159,36.11268 7.207884,36.10225 7.25,36.09375 z"
         transform="matrix(0.55782379,0,0,0.55782379,273.75003,547.54139)"
         id="rect3107"
         inkscape:connector-curvature="0"
         sodipodi:nodetypes="cccccssccsscsccsccssccccccccccccccccccssscccscccccsccscccscscscscccscscscsccscscscsscccscccsssccscc" />
    </g>
  </g>
</svg>
