<?xml version="1.0" encoding="UTF-8" standalone="no"?>
<!-- Created with Inkscape (http://www.inkscape.org/) -->

<svg
   xmlns:dc="http://purl.org/dc/elements/1.1/"
   xmlns:cc="http://creativecommons.org/ns#"
   xmlns:rdf="http://www.w3.org/1999/02/22-rdf-syntax-ns#"
   xmlns:svg="http://www.w3.org/2000/svg"
   xmlns="http://www.w3.org/2000/svg"
   xmlns:sodipodi="http://sodipodi.sourceforge.net/DTD/sodipodi-0.dtd"
   xmlns:inkscape="http://www.inkscape.org/namespaces/inkscape"
   width="32"
   height="267"
   id="svg2"
   version="1.1"
   inkscape:version="0.48.0 r9654"
   sodipodi:docname="thermometer_mask_colored.svg">
  <defs
     id="defs4">
    <clipPath
       id="clipId0">
      <path
         inkscape:connector-curvature="0"
         d="M 0,600 1000,600 1000,0 0,0 z"
         id="path7" />
    </clipPath>
    <clipPath
       id="clipPath3682">
      <path
         inkscape:connector-curvature="0"
         d="M 0,600 1000,600 1000,0 0,0 z"
         id="path3684" />
    </clipPath>
  </defs>
  <sodipodi:namedview
     id="base"
     pagecolor="#000000"
     bordercolor="#666666"
     borderopacity="1.0"
     inkscape:pageopacity="0.43529412"
     inkscape:pageshadow="2"
     inkscape:zoom="2"
     inkscape:cx="54.334642"
     inkscape:cy="124.32529"
     inkscape:document-units="px"
     inkscape:current-layer="layer1"
     showgrid="true"
     units="mm"
     inkscape:window-width="1280"
     inkscape:window-height="975"
     inkscape:window-x="-4"
     inkscape:window-y="-4"
     inkscape:window-maximized="1"
     inkscape:snap-global="false"
     fit-margin-top="0"
     fit-margin-left="0"
     fit-margin-right="0"
     fit-margin-bottom="0"
     inkscape:showpageshadow="false">
    <inkscape:grid
       type="xygrid"
       id="grid3920"
       empspacing="5"
       visible="true"
       enabled="true"
       snapvisiblegridlinesonly="true" />
  </sodipodi:namedview>
  <metadata
     id="metadata7">
    <rdf:RDF>
      <cc:Work
         rdf:about="">
        <dc:format>image/svg+xml</dc:format>
        <dc:type
           rdf:resource="http://purl.org/dc/dcmitype/StillImage" />
        <dc:title />
      </cc:Work>
    </rdf:RDF>
  </metadata>
  <g
     inkscape:label="Layer 1"
     inkscape:groupmode="layer"
     id="layer1"
     transform="translate(0,-785.36221)">
    <path
       style="fill:#000000;fill-opacity:1;stroke:none"
       d="M 0 0 L 0 267 L 32 267 L 32 0 L 0 0 z M 16 0.96875 C 22.07513 0.96875 27 5.89362 27 11.96875 L 27 240.8125 C 29.47003 243.4864 31 247.0728 31 251 C 31 259.2843 24.28427 266 16 266 C 7.715729 266 1 259.2843 1 251 C 1 247.0728 2.529973 243.4864 5 240.8125 L 5 11.96875 C 5 5.89362 9.924868 0.96875 16 0.96875 z "
       transform="translate(0,785.36221)"
       id="rect3778" />
    <g
       id="g3845"
       transform="translate(-146,0)">
      <path
         inkscape:connector-curvature="0"
         id="path3810"
         d="m 173,876.36682 0,-79.02882 c 0,-6.07513 -4.92487,-11 -11,-11 l 0,0 c -6.07513,0 -11,4.92487 -11,11 l 0,79.02882"
         style="fill:none;stroke:#ff0000;stroke-width:2;stroke-linecap:butt;stroke-linejoin:miter;stroke-miterlimit:4;stroke-opacity:1;stroke-dasharray:none" />
      <path
         inkscape:connector-curvature="0"
         id="path3001"
         d="m 151,996.36312 0,29.81158 c -2.47003,2.6739 -4,6.2603 -4,10.1875 0,8.2843 6.71573,15 15,15 8.28427,0 15,-6.7157 15,-15 0,-3.9272 -1.52997,-7.5136 -4,-10.1875 l 0,-29.81158"
         style="fill:none;stroke:#00ffff;stroke-width:2;stroke-linecap:butt;stroke-linejoin:miter;stroke-miterlimit:4;stroke-opacity:1;stroke-dasharray:none" />
      <path
         inkscape:connector-curvature="0"
         id="path3774"
         d="m 173,996.36312 0,-58.99818"
         style="fill:none;stroke:#ffff00;stroke-width:2;stroke-linecap:butt;stroke-linejoin:miter;stroke-miterlimit:4;stroke-opacity:1;stroke-dasharray:none" />
      <path
         style="fill:none;stroke:#ffff00;stroke-width:2;stroke-linecap:butt;stroke-linejoin:miter;stroke-miterlimit:4;stroke-opacity:1;stroke-dasharray:none"
         d="m 151,996.36312 0,-58.99818"
         id="path3805"
         inkscape:connector-curvature="0" />
      <path
         inkscape:connector-curvature="0"
         id="path3803"
         d="m 173,937.36494 0,-60.99812"
         style="fill:none;stroke:#00ff00;stroke-width:2;stroke-linecap:butt;stroke-linejoin:miter;stroke-miterlimit:4;stroke-opacity:1;stroke-dasharray:none" />
      <path
         inkscape:connector-curvature="0"
         style="fill:none;stroke:#00ff00;stroke-width:2;stroke-linecap:butt;stroke-linejoin:miter;stroke-miterlimit:4;stroke-opacity:1;stroke-dasharray:none"
         d="m 151,937.36494 0,-60.99812"
         id="path3812" />
    </g>
    <rect
       style="fill:#00ffff;fill-opacity:1;stroke:none"
       id="rect3783"
       width="12.908516"
       height="2"
       x="15.029434"
       y="1025.3649" />
    <rect
       y="996.36487"
       x="20.004906"
       height="1"
       width="7.9889517"
       id="rect3785"
       style="fill:#00ffff;fill-opacity:1;stroke:none" />
    <rect
       y="965.36493"
       x="15.013112"
       height="2"
       width="12.924838"
       id="rect3787"
       style="fill:#ffff00;fill-opacity:1;stroke:none" />
    <rect
       style="fill:#00ff00;fill-opacity:1;stroke:none"
       id="rect3793"
       width="8"
       height="1"
       x="19.983898"
       y="936.36487" />
    <rect
       style="fill:#00ff00;fill-opacity:1;stroke:none"
       id="rect3795"
       width="12.931953"
       height="2"
       x="15.005997"
       y="905.36493" />
    <rect
       y="876.36487"
       x="19.988335"
       height="1"
       width="8"
       id="rect3797"
       style="fill:#00ff00;fill-opacity:1;stroke:none" />
    <rect
       y="845.36493"
       x="14.998184"
       height="2"
       width="12.939766"
       id="rect3799"
       style="fill:#ff0000;fill-opacity:1;stroke:none" />
    <rect
       style="fill:#ff0000;fill-opacity:1;stroke:none"
       id="rect3801"
       width="8"
       height="1"
       x="20.00209"
       y="816.36487" />
  </g>
</svg>
